<svg viewBox="0 0 676 119" xmlns="http://www.w3.org/2000/svg" style="background-color: white;">
<text x="5" y="15" font-family="sans-serif" font-size="14" font-weight="bold" fill="#24292e">2021</text>
<text x="55" y="15" font-family="sans-serif" font-size="9" fill="#767676">Days documented: 17, Github: 16 (33), Quartz: 1 (1), Wordpress: 0 (0), Legacy: 0 (0)</text>
<text x="5" y="56" font-family="sans-serif" font-size="8" fill="#767676">Mon</text>
<text x="5" y="80" font-family="sans-serif" font-size="8" fill="#767676">Wed</text>
<text x="5" y="104" font-family="sans-serif" font-size="8" fill="#767676">Fri</text>
<a href="https://kreier.github.io/quartz/Diary/2021"><rect class="day-cell" data-date="2021-01-01" x="30" y="95" width="10" height="10" fill="#ffcdd2" rx="2" ry="2"></rect></a>
<rect class="day-cell" data-date="2021-01-02" x="30" y="107" width="10" height="10" fill="#ebedf0" rx="2" ry="2"></rect>
<text x="42" y="30" font-family="sans-serif" font-size="8" fill="#767676">Jan</text>
<rect class="day-cell" data-date="2021-01-03" x="42" y="35" width="10" height="10" fill="#ebedf0" rx="2" ry="2"></rect>
<a href="https://github.com/kreier/me2arm/blob/main/README.md"><rect class="day-cell" data-date="2021-01-04" x="42" y="47" width="10" height="10" fill="#fff3e0" rx="2" ry="2"></rect></a>
<rect class="day-cell" data-date="2021-01-05" x="42" y="59" width="10" height="10" fill="#ebedf0" rx="2" ry="2"></rect>
<rect class="day-cell" data-date="2021-01-06" x="42" y="71" width="10" height="10" fill="#ebedf0" rx="2" ry="2"></rect>
<rect class="day-cell" data-date="2021-01-07" x="42" y="83" width="10" height="10" fill="#ebedf0" rx="2" ry="2"></rect>
<rect class="day-cell" data-date="2021-01-08" x="42" y="95" width="10" height="10" fill="#ebedf0" rx="2" ry="2"></rect>
<rect class="day-cell" data-date="2021-01-09" x="42" y="107" width="10" height="10" fill="#ebedf0" rx="2" ry="2"></rect>
<rect class="day-cell" data-date="2021-01-10" x="54" y="35" width="10" height="10" fill="#ebedf0" rx="2" ry="2"></rect>
<rect class="day-cell" data-date="2021-01-11" x="54" y="47" width="10" height="10" fill="#ebedf0" rx="2" ry="2"></rect>
<rect class="day-cell" data-date="2021-01-12" x="54" y="59" width="10" height="10" fill="#ebedf0" rx="2" ry="2"></rect>
<rect class="day-cell" data-date="2021-01-13" x="54" y="71" width="10" height="10" fill="#ebedf0" rx="2" ry="2"></rect>
<rect class="day-cell" data-date="2021-01-14" x="54" y="83" width="10" height="10" fill="#ebedf0" rx="2" ry="2"></rect>
<rect class="day-cell" data-date="2021-01-15" x="54" y="95" width="10" height="10" fill="#ebedf0" rx="2" ry="2"></rect>
<rect class="day-cell" data-date="2021-01-16" x="54" y="107" width="10" height="10" fill="#ebedf0" rx="2" ry="2"></rect>
<rect class="day-cell" data-date="2021-01-17" x="66" y="35" width="10" height="10" fill="#ebedf0" rx="2" ry="2"></rect>
<rect class="day-cell" data-date="2021-01-18" x="66" y="47" width="10" height="10" fill="#ebedf0" rx="2" ry="2"></rect>
<rect class="day-cell" data-date="2021-01-19" x="66" y="59" width="10" height="10" fill="#ebedf0" rx="2" ry="2"></rect>
<rect class="day-cell" data-date="2021-01-20" x="66" y="71" width="10" height="10" fill="#ebedf0" rx="2" ry="2"></rect>
<rect class="day-cell" data-date="2021-01-21" x="66" y="83" width="10" height="10" fill="#ebedf0" rx="2" ry="2"></rect>
<rect class="day-cell" data-date="2021-01-22" x="66" y="95" width="10" height="10" fill="#ebedf0" rx="2" ry="2"></rect>
<rect class="day-cell" data-date="2021-01-23" x="66" y="107" width="10" height="10" fill="#ebedf0" rx="2" ry="2"></rect>
<rect class="day-cell" data-date="2021-01-24" x="78" y="35" width="10" height="10" fill="#ebedf0" rx="2" ry="2"></rect>
<rect class="day-cell" data-date="2021-01-25" x="78" y="47" width="10" height="10" fill="#ebedf0" rx="2" ry="2"></rect>
<rect class="day-cell" data-date="2021-01-26" x="78" y="59" width="10" height="10" fill="#ebedf0" rx="2" ry="2"></rect>
<rect class="day-cell" data-date="2021-01-27" x="78" y="71" width="10" height="10" fill="#ebedf0" rx="2" ry="2"></rect>
<rect class="day-cell" data-date="2021-01-28" x="78" y="83" width="10" height="10" fill="#ebedf0" rx="2" ry="2"></rect>
<rect class="day-cell" data-date="2021-01-29" x="78" y="95" width="10" height="10" fill="#ebedf0" rx="2" ry="2"></rect>
<rect class="day-cell" data-date="2021-01-30" x="78" y="107" width="10" height="10" fill="#ebedf0" rx="2" ry="2"></rect>
<rect class="day-cell" data-date="2021-01-31" x="90" y="35" width="10" height="10" fill="#ebedf0" rx="2" ry="2"></rect>
<rect class="day-cell" data-date="2021-02-01" x="90" y="47" width="10" height="10" fill="#ebedf0" rx="2" ry="2"></rect>
<rect class="day-cell" data-date="2021-02-02" x="90" y="59" width="10" height="10" fill="#ebedf0" rx="2" ry="2"></rect>
<rect class="day-cell" data-date="2021-02-03" x="90" y="71" width="10" height="10" fill="#ebedf0" rx="2" ry="2"></rect>
<rect class="day-cell" data-date="2021-02-04" x="90" y="83" width="10" height="10" fill="#ebedf0" rx="2" ry="2"></rect>
<rect class="day-cell" data-date="2021-02-05" x="90" y="95" width="10" height="10" fill="#ebedf0" rx="2" ry="2"></rect>
<rect class="day-cell" data-date="2021-02-06" x="90" y="107" width="10" height="10" fill="#ebedf0" rx="2" ry="2"></rect>
<text x="102" y="30" font-family="sans-serif" font-size="8" fill="#767676">Feb</text>
<rect class="day-cell" data-date="2021-02-07" x="102" y="35" width="10" height="10" fill="#ebedf0" rx="2" ry="2"></rect>
<rect class="day-cell" data-date="2021-02-08" x="102" y="47" width="10" height="10" fill="#ebedf0" rx="2" ry="2"></rect>
<rect class="day-cell" data-date="2021-02-09" x="102" y="59" width="10" height="10" fill="#ebedf0" rx="2" ry="2"></rect>
<rect class="day-cell" data-date="2021-02-10" x="102" y="71" width="10" height="10" fill="#ebedf0" rx="2" ry="2"></rect>
<rect class="day-cell" data-date="2021-02-11" x="102" y="83" width="10" height="10" fill="#ebedf0" rx="2" ry="2"></rect>
<rect class="day-cell" data-date="2021-02-12" x="102" y="95" width="10" height="10" fill="#ebedf0" rx="2" ry="2"></rect>
<rect class="day-cell" data-date="2021-02-13" x="102" y="107" width="10" height="10" fill="#ebedf0" rx="2" ry="2"></rect>
<rect class="day-cell" data-date="2021-02-14" x="114" y="35" width="10" height="10" fill="#ebedf0" rx="2" ry="2"></rect>
<rect class="day-cell" data-date="2021-02-15" x="114" y="47" width="10" height="10" fill="#ebedf0" rx="2" ry="2"></rect>
<rect class="day-cell" data-date="2021-02-16" x="114" y="59" width="10" height="10" fill="#ebedf0" rx="2" ry="2"></rect>
<rect class="day-cell" data-date="2021-02-17" x="114" y="71" width="10" height="10" fill="#ebedf0" rx="2" ry="2"></rect>
<rect class="day-cell" data-date="2021-02-18" x="114" y="83" width="10" height="10" fill="#ebedf0" rx="2" ry="2"></rect>
<rect class="day-cell" data-date="2021-02-19" x="114" y="95" width="10" height="10" fill="#ebedf0" rx="2" ry="2"></rect>
<rect class="day-cell" data-date="2021-02-20" x="114" y="107" width="10" height="10" fill="#ebedf0" rx="2" ry="2"></rect>
<rect class="day-cell" data-date="2021-02-21" x="126" y="35" width="10" height="10" fill="#ebedf0" rx="2" ry="2"></rect>
<rect class="day-cell" data-date="2021-02-22" x="126" y="47" width="10" height="10" fill="#ebedf0" rx="2" ry="2"></rect>
<rect class="day-cell" data-date="2021-02-23" x="126" y="59" width="10" height="10" fill="#ebedf0" rx="2" ry="2"></rect>
<rect class="day-cell" data-date="2021-02-24" x="126" y="71" width="10" height="10" fill="#ebedf0" rx="2" ry="2"></rect>
<rect class="day-cell" data-date="2021-02-25" x="126" y="83" width="10" height="10" fill="#ebedf0" rx="2" ry="2"></rect>
<rect class="day-cell" data-date="2021-02-26" x="126" y="95" width="10" height="10" fill="#ebedf0" rx="2" ry="2"></rect>
<rect class="day-cell" data-date="2021-02-27" x="126" y="107" width="10" height="10" fill="#ebedf0" rx="2" ry="2"></rect>
<rect class="day-cell" data-date="2021-02-28" x="138" y="35" width="10" height="10" fill="#ebedf0" rx="2" ry="2"></rect>
<rect class="day-cell" data-date="2021-03-01" x="138" y="47" width="10" height="10" fill="#ebedf0" rx="2" ry="2"></rect>
<rect class="day-cell" data-date="2021-03-02" x="138" y="59" width="10" height="10" fill="#ebedf0" rx="2" ry="2"></rect>
<rect class="day-cell" data-date="2021-03-03" x="138" y="71" width="10" height="10" fill="#ebedf0" rx="2" ry="2"></rect>
<rect class="day-cell" data-date="2021-03-04" x="138" y="83" width="10" height="10" fill="#ebedf0" rx="2" ry="2"></rect>
<rect class="day-cell" data-date="2021-03-05" x="138" y="95" width="10" height="10" fill="#ebedf0" rx="2" ry="2"></rect>
<rect class="day-cell" data-date="2021-03-06" x="138" y="107" width="10" height="10" fill="#ebedf0" rx="2" ry="2"></rect>
<text x="150" y="30" font-family="sans-serif" font-size="8" fill="#767676">Mar</text>
<rect class="day-cell" data-date="2021-03-07" x="150" y="35" width="10" height="10" fill="#ebedf0" rx="2" ry="2"></rect>
<rect class="day-cell" data-date="2021-03-08" x="150" y="47" width="10" height="10" fill="#ebedf0" rx="2" ry="2"></rect>
<rect class="day-cell" data-date="2021-03-09" x="150" y="59" width="10" height="10" fill="#ebedf0" rx="2" ry="2"></rect>
<rect class="day-cell" data-date="2021-03-10" x="150" y="71" width="10" height="10" fill="#ebedf0" rx="2" ry="2"></rect>
<rect class="day-cell" data-date="2021-03-11" x="150" y="83" width="10" height="10" fill="#ebedf0" rx="2" ry="2"></rect>
<rect class="day-cell" data-date="2021-03-12" x="150" y="95" width="10" height="10" fill="#ebedf0" rx="2" ry="2"></rect>
<rect class="day-cell" data-date="2021-03-13" x="150" y="107" width="10" height="10" fill="#ebedf0" rx="2" ry="2"></rect>
<rect class="day-cell" data-date="2021-03-14" x="162" y="35" width="10" height="10" fill="#ebedf0" rx="2" ry="2"></rect>
<rect class="day-cell" data-date="2021-03-15" x="162" y="47" width="10" height="10" fill="#ebedf0" rx="2" ry="2"></rect>
<rect class="day-cell" data-date="2021-03-16" x="162" y="59" width="10" height="10" fill="#ebedf0" rx="2" ry="2"></rect>
<rect class="day-cell" data-date="2021-03-17" x="162" y="71" width="10" height="10" fill="#ebedf0" rx="2" ry="2"></rect>
<rect class="day-cell" data-date="2021-03-18" x="162" y="83" width="10" height="10" fill="#ebedf0" rx="2" ry="2"></rect>
<rect class="day-cell" data-date="2021-03-19" x="162" y="95" width="10" height="10" fill="#ebedf0" rx="2" ry="2"></rect>
<rect class="day-cell" data-date="2021-03-20" x="162" y="107" width="10" height="10" fill="#ebedf0" rx="2" ry="2"></rect>
<rect class="day-cell" data-date="2021-03-21" x="174" y="35" width="10" height="10" fill="#ebedf0" rx="2" ry="2"></rect>
<rect class="day-cell" data-date="2021-03-22" x="174" y="47" width="10" height="10" fill="#ebedf0" rx="2" ry="2"></rect>
<rect class="day-cell" data-date="2021-03-23" x="174" y="59" width="10" height="10" fill="#ebedf0" rx="2" ry="2"></rect>
<rect class="day-cell" data-date="2021-03-24" x="174" y="71" width="10" height="10" fill="#ebedf0" rx="2" ry="2"></rect>
<rect class="day-cell" data-date="2021-03-25" x="174" y="83" width="10" height="10" fill="#ebedf0" rx="2" ry="2"></rect>
<rect class="day-cell" data-date="2021-03-26" x="174" y="95" width="10" height="10" fill="#ebedf0" rx="2" ry="2"></rect>
<rect class="day-cell" data-date="2021-03-27" x="174" y="107" width="10" height="10" fill="#ebedf0" rx="2" ry="2"></rect>
<rect class="day-cell" data-date="2021-03-28" x="186" y="35" width="10" height="10" fill="#ebedf0" rx="2" ry="2"></rect>
<rect class="day-cell" data-date="2021-03-29" x="186" y="47" width="10" height="10" fill="#ebedf0" rx="2" ry="2"></rect>
<rect class="day-cell" data-date="2021-03-30" x="186" y="59" width="10" height="10" fill="#ebedf0" rx="2" ry="2"></rect>
<rect class="day-cell" data-date="2021-03-31" x="186" y="71" width="10" height="10" fill="#ebedf0" rx="2" ry="2"></rect>
<rect class="day-cell" data-date="2021-04-01" x="186" y="83" width="10" height="10" fill="#ebedf0" rx="2" ry="2"></rect>
<rect class="day-cell" data-date="2021-04-02" x="186" y="95" width="10" height="10" fill="#ebedf0" rx="2" ry="2"></rect>
<rect class="day-cell" data-date="2021-04-03" x="186" y="107" width="10" height="10" fill="#ebedf0" rx="2" ry="2"></rect>
<text x="198" y="30" font-family="sans-serif" font-size="8" fill="#767676">Apr</text>
<rect class="day-cell" data-date="2021-04-04" x="198" y="35" width="10" height="10" fill="#ebedf0" rx="2" ry="2"></rect>
<rect class="day-cell" data-date="2021-04-05" x="198" y="47" width="10" height="10" fill="#ebedf0" rx="2" ry="2"></rect>
<rect class="day-cell" data-date="2021-04-06" x="198" y="59" width="10" height="10" fill="#ebedf0" rx="2" ry="2"></rect>
<rect class="day-cell" data-date="2021-04-07" x="198" y="71" width="10" height="10" fill="#ebedf0" rx="2" ry="2"></rect>
<rect class="day-cell" data-date="2021-04-08" x="198" y="83" width="10" height="10" fill="#ebedf0" rx="2" ry="2"></rect>
<rect class="day-cell" data-date="2021-04-09" x="198" y="95" width="10" height="10" fill="#ebedf0" rx="2" ry="2"></rect>
<rect class="day-cell" data-date="2021-04-10" x="198" y="107" width="10" height="10" fill="#ebedf0" rx="2" ry="2"></rect>
<rect class="day-cell" data-date="2021-04-11" x="210" y="35" width="10" height="10" fill="#ebedf0" rx="2" ry="2"></rect>
<rect class="day-cell" data-date="2021-04-12" x="210" y="47" width="10" height="10" fill="#ebedf0" rx="2" ry="2"></rect>
<rect class="day-cell" data-date="2021-04-13" x="210" y="59" width="10" height="10" fill="#ebedf0" rx="2" ry="2"></rect>
<a href="https://github.com/kreier/aqi/commit/ab232dc5d18e2268e31fdc4a1b65283ac7bafe7a"><rect class="day-cell" data-date="2021-04-14" x="210" y="71" width="10" height="10" fill="#fb8c00" rx="2" ry="2"></rect></a>
<a href="https://github.com/kreier/aqi/commit/bcd08a66b4a150a0d561fd57bb50a1d09c506f83"><rect class="day-cell" data-date="2021-04-15" x="210" y="83" width="10" height="10" fill="#ffcc80" rx="2" ry="2"></rect></a>
<a href="https://github.com/kreier/aqi/commit/bbc0ec88f1c29f43d2875090c97e5e2a23885903"><rect class="day-cell" data-date="2021-04-16" x="210" y="95" width="10" height="10" fill="#ffcc80" rx="2" ry="2"></rect></a>
<rect class="day-cell" data-date="2021-04-17" x="210" y="107" width="10" height="10" fill="#ebedf0" rx="2" ry="2"></rect>
<rect class="day-cell" data-date="2021-04-18" x="222" y="35" width="10" height="10" fill="#ebedf0" rx="2" ry="2"></rect>
<rect class="day-cell" data-date="2021-04-19" x="222" y="47" width="10" height="10" fill="#ebedf0" rx="2" ry="2"></rect>
<rect class="day-cell" data-date="2021-04-20" x="222" y="59" width="10" height="10" fill="#ebedf0" rx="2" ry="2"></rect>
<rect class="day-cell" data-date="2021-04-21" x="222" y="71" width="10" height="10" fill="#ebedf0" rx="2" ry="2"></rect>
<rect class="day-cell" data-date="2021-04-22" x="222" y="83" width="10" height="10" fill="#ebedf0" rx="2" ry="2"></rect>
<rect class="day-cell" data-date="2021-04-23" x="222" y="95" width="10" height="10" fill="#ebedf0" rx="2" ry="2"></rect>
<rect class="day-cell" data-date="2021-04-24" x="222" y="107" width="10" height="10" fill="#ebedf0" rx="2" ry="2"></rect>
<rect class="day-cell" data-date="2021-04-25" x="234" y="35" width="10" height="10" fill="#ebedf0" rx="2" ry="2"></rect>
<rect class="day-cell" data-date="2021-04-26" x="234" y="47" width="10" height="10" fill="#ebedf0" rx="2" ry="2"></rect>
<rect class="day-cell" data-date="2021-04-27" x="234" y="59" width="10" height="10" fill="#ebedf0" rx="2" ry="2"></rect>
<rect class="day-cell" data-date="2021-04-28" x="234" y="71" width="10" height="10" fill="#ebedf0" rx="2" ry="2"></rect>
<rect class="day-cell" data-date="2021-04-29" x="234" y="83" width="10" height="10" fill="#ebedf0" rx="2" ry="2"></rect>
<rect class="day-cell" data-date="2021-04-30" x="234" y="95" width="10" height="10" fill="#ebedf0" rx="2" ry="2"></rect>
<rect class="day-cell" data-date="2021-05-01" x="234" y="107" width="10" height="10" fill="#ebedf0" rx="2" ry="2"></rect>
<text x="246" y="30" font-family="sans-serif" font-size="8" fill="#767676">May</text>
<rect class="day-cell" data-date="2021-05-02" x="246" y="35" width="10" height="10" fill="#ebedf0" rx="2" ry="2"></rect>
<rect class="day-cell" data-date="2021-05-03" x="246" y="47" width="10" height="10" fill="#ebedf0" rx="2" ry="2"></rect>
<rect class="day-cell" data-date="2021-05-04" x="246" y="59" width="10" height="10" fill="#ebedf0" rx="2" ry="2"></rect>
<rect class="day-cell" data-date="2021-05-05" x="246" y="71" width="10" height="10" fill="#ebedf0" rx="2" ry="2"></rect>
<rect class="day-cell" data-date="2021-05-06" x="246" y="83" width="10" height="10" fill="#ebedf0" rx="2" ry="2"></rect>
<rect class="day-cell" data-date="2021-05-07" x="246" y="95" width="10" height="10" fill="#ebedf0" rx="2" ry="2"></rect>
<rect class="day-cell" data-date="2021-05-08" x="246" y="107" width="10" height="10" fill="#ebedf0" rx="2" ry="2"></rect>
<rect class="day-cell" data-date="2021-05-09" x="258" y="35" width="10" height="10" fill="#ebedf0" rx="2" ry="2"></rect>
<rect class="day-cell" data-date="2021-05-10" x="258" y="47" width="10" height="10" fill="#ebedf0" rx="2" ry="2"></rect>
<rect class="day-cell" data-date="2021-05-11" x="258" y="59" width="10" height="10" fill="#ebedf0" rx="2" ry="2"></rect>
<rect class="day-cell" data-date="2021-05-12" x="258" y="71" width="10" height="10" fill="#ebedf0" rx="2" ry="2"></rect>
<rect class="day-cell" data-date="2021-05-13" x="258" y="83" width="10" height="10" fill="#ebedf0" rx="2" ry="2"></rect>
<rect class="day-cell" data-date="2021-05-14" x="258" y="95" width="10" height="10" fill="#ebedf0" rx="2" ry="2"></rect>
<rect class="day-cell" data-date="2021-05-15" x="258" y="107" width="10" height="10" fill="#ebedf0" rx="2" ry="2"></rect>
<rect class="day-cell" data-date="2021-05-16" x="270" y="35" width="10" height="10" fill="#ebedf0" rx="2" ry="2"></rect>
<rect class="day-cell" data-date="2021-05-17" x="270" y="47" width="10" height="10" fill="#ebedf0" rx="2" ry="2"></rect>
<rect class="day-cell" data-date="2021-05-18" x="270" y="59" width="10" height="10" fill="#ebedf0" rx="2" ry="2"></rect>
<rect class="day-cell" data-date="2021-05-19" x="270" y="71" width="10" height="10" fill="#ebedf0" rx="2" ry="2"></rect>
<rect class="day-cell" data-date="2021-05-20" x="270" y="83" width="10" height="10" fill="#ebedf0" rx="2" ry="2"></rect>
<rect class="day-cell" data-date="2021-05-21" x="270" y="95" width="10" height="10" fill="#ebedf0" rx="2" ry="2"></rect>
<rect class="day-cell" data-date="2021-05-22" x="270" y="107" width="10" height="10" fill="#ebedf0" rx="2" ry="2"></rect>
<rect class="day-cell" data-date="2021-05-23" x="282" y="35" width="10" height="10" fill="#ebedf0" rx="2" ry="2"></rect>
<rect class="day-cell" data-date="2021-05-24" x="282" y="47" width="10" height="10" fill="#ebedf0" rx="2" ry="2"></rect>
<rect class="day-cell" data-date="2021-05-25" x="282" y="59" width="10" height="10" fill="#ebedf0" rx="2" ry="2"></rect>
<rect class="day-cell" data-date="2021-05-26" x="282" y="71" width="10" height="10" fill="#ebedf0" rx="2" ry="2"></rect>
<rect class="day-cell" data-date="2021-05-27" x="282" y="83" width="10" height="10" fill="#ebedf0" rx="2" ry="2"></rect>
<rect class="day-cell" data-date="2021-05-28" x="282" y="95" width="10" height="10" fill="#ebedf0" rx="2" ry="2"></rect>
<rect class="day-cell" data-date="2021-05-29" x="282" y="107" width="10" height="10" fill="#ebedf0" rx="2" ry="2"></rect>
<rect class="day-cell" data-date="2021-05-30" x="294" y="35" width="10" height="10" fill="#ebedf0" rx="2" ry="2"></rect>
<rect class="day-cell" data-date="2021-05-31" x="294" y="47" width="10" height="10" fill="#ebedf0" rx="2" ry="2"></rect>
<rect class="day-cell" data-date="2021-06-01" x="294" y="59" width="10" height="10" fill="#ebedf0" rx="2" ry="2"></rect>
<rect class="day-cell" data-date="2021-06-02" x="294" y="71" width="10" height="10" fill="#ebedf0" rx="2" ry="2"></rect>
<rect class="day-cell" data-date="2021-06-03" x="294" y="83" width="10" height="10" fill="#ebedf0" rx="2" ry="2"></rect>
<rect class="day-cell" data-date="2021-06-04" x="294" y="95" width="10" height="10" fill="#ebedf0" rx="2" ry="2"></rect>
<rect class="day-cell" data-date="2021-06-05" x="294" y="107" width="10" height="10" fill="#ebedf0" rx="2" ry="2"></rect>
<text x="306" y="30" font-family="sans-serif" font-size="8" fill="#767676">Jun</text>
<rect class="day-cell" data-date="2021-06-06" x="306" y="35" width="10" height="10" fill="#ebedf0" rx="2" ry="2"></rect>
<a href="https://github.com/kreier/history/commit/2dabd8202832188bb98c6b7aef747b6bba5d953e"><rect class="day-cell" data-date="2021-06-07" x="306" y="47" width="10" height="10" fill="#fff3e0" rx="2" ry="2"></rect></a>
<rect class="day-cell" data-date="2021-06-08" x="306" y="59" width="10" height="10" fill="#ebedf0" rx="2" ry="2"></rect>
<rect class="day-cell" data-date="2021-06-09" x="306" y="71" width="10" height="10" fill="#ebedf0" rx="2" ry="2"></rect>
<rect class="day-cell" data-date="2021-06-10" x="306" y="83" width="10" height="10" fill="#ebedf0" rx="2" ry="2"></rect>
<a href="https://github.com/kreier/history/commit/be2d526acd8b580c03cfd0dfbc0d5cdbee70ba73"><rect class="day-cell" data-date="2021-06-11" x="306" y="95" width="10" height="10" fill="#ffcc80" rx="2" ry="2"></rect></a>
<rect class="day-cell" data-date="2021-06-12" x="306" y="107" width="10" height="10" fill="#ebedf0" rx="2" ry="2"></rect>
<rect class="day-cell" data-date="2021-06-13" x="318" y="35" width="10" height="10" fill="#ebedf0" rx="2" ry="2"></rect>
<rect class="day-cell" data-date="2021-06-14" x="318" y="47" width="10" height="10" fill="#ebedf0" rx="2" ry="2"></rect>
<rect class="day-cell" data-date="2021-06-15" x="318" y="59" width="10" height="10" fill="#ebedf0" rx="2" ry="2"></rect>
<rect class="day-cell" data-date="2021-06-16" x="318" y="71" width="10" height="10" fill="#ebedf0" rx="2" ry="2"></rect>
<rect class="day-cell" data-date="2021-06-17" x="318" y="83" width="10" height="10" fill="#ebedf0" rx="2" ry="2"></rect>
<rect class="day-cell" data-date="2021-06-18" x="318" y="95" width="10" height="10" fill="#ebedf0" rx="2" ry="2"></rect>
<rect class="day-cell" data-date="2021-06-19" x="318" y="107" width="10" height="10" fill="#ebedf0" rx="2" ry="2"></rect>
<rect class="day-cell" data-date="2021-06-20" x="330" y="35" width="10" height="10" fill="#ebedf0" rx="2" ry="2"></rect>
<rect class="day-cell" data-date="2021-06-21" x="330" y="47" width="10" height="10" fill="#ebedf0" rx="2" ry="2"></rect>
<rect class="day-cell" data-date="2021-06-22" x="330" y="59" width="10" height="10" fill="#ebedf0" rx="2" ry="2"></rect>
<rect class="day-cell" data-date="2021-06-23" x="330" y="71" width="10" height="10" fill="#ebedf0" rx="2" ry="2"></rect>
<rect class="day-cell" data-date="2021-06-24" x="330" y="83" width="10" height="10" fill="#ebedf0" rx="2" ry="2"></rect>
<rect class="day-cell" data-date="2021-06-25" x="330" y="95" width="10" height="10" fill="#ebedf0" rx="2" ry="2"></rect>
<rect class="day-cell" data-date="2021-06-26" x="330" y="107" width="10" height="10" fill="#ebedf0" rx="2" ry="2"></rect>
<rect class="day-cell" data-date="2021-06-27" x="342" y="35" width="10" height="10" fill="#ebedf0" rx="2" ry="2"></rect>
<rect class="day-cell" data-date="2021-06-28" x="342" y="47" width="10" height="10" fill="#ebedf0" rx="2" ry="2"></rect>
<rect class="day-cell" data-date="2021-06-29" x="342" y="59" width="10" height="10" fill="#ebedf0" rx="2" ry="2"></rect>
<rect class="day-cell" data-date="2021-06-30" x="342" y="71" width="10" height="10" fill="#ebedf0" rx="2" ry="2"></rect>
<rect class="day-cell" data-date="2021-07-01" x="342" y="83" width="10" height="10" fill="#ebedf0" rx="2" ry="2"></rect>
<rect class="day-cell" data-date="2021-07-02" x="342" y="95" width="10" height="10" fill="#ebedf0" rx="2" ry="2"></rect>
<rect class="day-cell" data-date="2021-07-03" x="342" y="107" width="10" height="10" fill="#ebedf0" rx="2" ry="2"></rect>
<text x="354" y="30" font-family="sans-serif" font-size="8" fill="#767676">Jul</text>
<rect class="day-cell" data-date="2021-07-04" x="354" y="35" width="10" height="10" fill="#ebedf0" rx="2" ry="2"></rect>
<rect class="day-cell" data-date="2021-07-05" x="354" y="47" width="10" height="10" fill="#ebedf0" rx="2" ry="2"></rect>
<rect class="day-cell" data-date="2021-07-06" x="354" y="59" width="10" height="10" fill="#ebedf0" rx="2" ry="2"></rect>
<rect class="day-cell" data-date="2021-07-07" x="354" y="71" width="10" height="10" fill="#ebedf0" rx="2" ry="2"></rect>
<rect class="day-cell" data-date="2021-07-08" x="354" y="83" width="10" height="10" fill="#ebedf0" rx="2" ry="2"></rect>
<rect class="day-cell" data-date="2021-07-09" x="354" y="95" width="10" height="10" fill="#ebedf0" rx="2" ry="2"></rect>
<rect class="day-cell" data-date="2021-07-10" x="354" y="107" width="10" height="10" fill="#ebedf0" rx="2" ry="2"></rect>
<rect class="day-cell" data-date="2021-07-11" x="366" y="35" width="10" height="10" fill="#ebedf0" rx="2" ry="2"></rect>
<rect class="day-cell" data-date="2021-07-12" x="366" y="47" width="10" height="10" fill="#ebedf0" rx="2" ry="2"></rect>
<rect class="day-cell" data-date="2021-07-13" x="366" y="59" width="10" height="10" fill="#ebedf0" rx="2" ry="2"></rect>
<rect class="day-cell" data-date="2021-07-14" x="366" y="71" width="10" height="10" fill="#ebedf0" rx="2" ry="2"></rect>
<rect class="day-cell" data-date="2021-07-15" x="366" y="83" width="10" height="10" fill="#ebedf0" rx="2" ry="2"></rect>
<rect class="day-cell" data-date="2021-07-16" x="366" y="95" width="10" height="10" fill="#ebedf0" rx="2" ry="2"></rect>
<rect class="day-cell" data-date="2021-07-17" x="366" y="107" width="10" height="10" fill="#ebedf0" rx="2" ry="2"></rect>
<rect class="day-cell" data-date="2021-07-18" x="378" y="35" width="10" height="10" fill="#ebedf0" rx="2" ry="2"></rect>
<rect class="day-cell" data-date="2021-07-19" x="378" y="47" width="10" height="10" fill="#ebedf0" rx="2" ry="2"></rect>
<rect class="day-cell" data-date="2021-07-20" x="378" y="59" width="10" height="10" fill="#ebedf0" rx="2" ry="2"></rect>
<rect class="day-cell" data-date="2021-07-21" x="378" y="71" width="10" height="10" fill="#ebedf0" rx="2" ry="2"></rect>
<rect class="day-cell" data-date="2021-07-22" x="378" y="83" width="10" height="10" fill="#ebedf0" rx="2" ry="2"></rect>
<rect class="day-cell" data-date="2021-07-23" x="378" y="95" width="10" height="10" fill="#ebedf0" rx="2" ry="2"></rect>
<rect class="day-cell" data-date="2021-07-24" x="378" y="107" width="10" height="10" fill="#ebedf0" rx="2" ry="2"></rect>
<rect class="day-cell" data-date="2021-07-25" x="390" y="35" width="10" height="10" fill="#ebedf0" rx="2" ry="2"></rect>
<rect class="day-cell" data-date="2021-07-26" x="390" y="47" width="10" height="10" fill="#ebedf0" rx="2" ry="2"></rect>
<rect class="day-cell" data-date="2021-07-27" x="390" y="59" width="10" height="10" fill="#ebedf0" rx="2" ry="2"></rect>
<rect class="day-cell" data-date="2021-07-28" x="390" y="71" width="10" height="10" fill="#ebedf0" rx="2" ry="2"></rect>
<rect class="day-cell" data-date="2021-07-29" x="390" y="83" width="10" height="10" fill="#ebedf0" rx="2" ry="2"></rect>
<rect class="day-cell" data-date="2021-07-30" x="390" y="95" width="10" height="10" fill="#ebedf0" rx="2" ry="2"></rect>
<rect class="day-cell" data-date="2021-07-31" x="390" y="107" width="10" height="10" fill="#ebedf0" rx="2" ry="2"></rect>
<text x="402" y="30" font-family="sans-serif" font-size="8" fill="#767676">Aug</text>
<rect class="day-cell" data-date="2021-08-01" x="402" y="35" width="10" height="10" fill="#ebedf0" rx="2" ry="2"></rect>
<rect class="day-cell" data-date="2021-08-02" x="402" y="47" width="10" height="10" fill="#ebedf0" rx="2" ry="2"></rect>
<rect class="day-cell" data-date="2021-08-03" x="402" y="59" width="10" height="10" fill="#ebedf0" rx="2" ry="2"></rect>
<rect class="day-cell" data-date="2021-08-04" x="402" y="71" width="10" height="10" fill="#ebedf0" rx="2" ry="2"></rect>
<rect class="day-cell" data-date="2021-08-05" x="402" y="83" width="10" height="10" fill="#ebedf0" rx="2" ry="2"></rect>
<rect class="day-cell" data-date="2021-08-06" x="402" y="95" width="10" height="10" fill="#ebedf0" rx="2" ry="2"></rect>
<rect class="day-cell" data-date="2021-08-07" x="402" y="107" width="10" height="10" fill="#ebedf0" rx="2" ry="2"></rect>
<rect class="day-cell" data-date="2021-08-08" x="414" y="35" width="10" height="10" fill="#ebedf0" rx="2" ry="2"></rect>
<rect class="day-cell" data-date="2021-08-09" x="414" y="47" width="10" height="10" fill="#ebedf0" rx="2" ry="2"></rect>
<rect class="day-cell" data-date="2021-08-10" x="414" y="59" width="10" height="10" fill="#ebedf0" rx="2" ry="2"></rect>
<rect class="day-cell" data-date="2021-08-11" x="414" y="71" width="10" height="10" fill="#ebedf0" rx="2" ry="2"></rect>
<rect class="day-cell" data-date="2021-08-12" x="414" y="83" width="10" height="10" fill="#ebedf0" rx="2" ry="2"></rect>
<rect class="day-cell" data-date="2021-08-13" x="414" y="95" width="10" height="10" fill="#ebedf0" rx="2" ry="2"></rect>
<rect class="day-cell" data-date="2021-08-14" x="414" y="107" width="10" height="10" fill="#ebedf0" rx="2" ry="2"></rect>
<rect class="day-cell" data-date="2021-08-15" x="426" y="35" width="10" height="10" fill="#ebedf0" rx="2" ry="2"></rect>
<rect class="day-cell" data-date="2021-08-16" x="426" y="47" width="10" height="10" fill="#ebedf0" rx="2" ry="2"></rect>
<rect class="day-cell" data-date="2021-08-17" x="426" y="59" width="10" height="10" fill="#ebedf0" rx="2" ry="2"></rect>
<rect class="day-cell" data-date="2021-08-18" x="426" y="71" width="10" height="10" fill="#ebedf0" rx="2" ry="2"></rect>
<rect class="day-cell" data-date="2021-08-19" x="426" y="83" width="10" height="10" fill="#ebedf0" rx="2" ry="2"></rect>
<rect class="day-cell" data-date="2021-08-20" x="426" y="95" width="10" height="10" fill="#ebedf0" rx="2" ry="2"></rect>
<rect class="day-cell" data-date="2021-08-21" x="426" y="107" width="10" height="10" fill="#ebedf0" rx="2" ry="2"></rect>
<rect class="day-cell" data-date="2021-08-22" x="438" y="35" width="10" height="10" fill="#ebedf0" rx="2" ry="2"></rect>
<rect class="day-cell" data-date="2021-08-23" x="438" y="47" width="10" height="10" fill="#ebedf0" rx="2" ry="2"></rect>
<rect class="day-cell" data-date="2021-08-24" x="438" y="59" width="10" height="10" fill="#ebedf0" rx="2" ry="2"></rect>
<rect class="day-cell" data-date="2021-08-25" x="438" y="71" width="10" height="10" fill="#ebedf0" rx="2" ry="2"></rect>
<rect class="day-cell" data-date="2021-08-26" x="438" y="83" width="10" height="10" fill="#ebedf0" rx="2" ry="2"></rect>
<rect class="day-cell" data-date="2021-08-27" x="438" y="95" width="10" height="10" fill="#ebedf0" rx="2" ry="2"></rect>
<rect class="day-cell" data-date="2021-08-28" x="438" y="107" width="10" height="10" fill="#ebedf0" rx="2" ry="2"></rect>
<rect class="day-cell" data-date="2021-08-29" x="450" y="35" width="10" height="10" fill="#ebedf0" rx="2" ry="2"></rect>
<rect class="day-cell" data-date="2021-08-30" x="450" y="47" width="10" height="10" fill="#ebedf0" rx="2" ry="2"></rect>
<rect class="day-cell" data-date="2021-08-31" x="450" y="59" width="10" height="10" fill="#ebedf0" rx="2" ry="2"></rect>
<rect class="day-cell" data-date="2021-09-01" x="450" y="71" width="10" height="10" fill="#ebedf0" rx="2" ry="2"></rect>
<rect class="day-cell" data-date="2021-09-02" x="450" y="83" width="10" height="10" fill="#ebedf0" rx="2" ry="2"></rect>
<rect class="day-cell" data-date="2021-09-03" x="450" y="95" width="10" height="10" fill="#ebedf0" rx="2" ry="2"></rect>
<rect class="day-cell" data-date="2021-09-04" x="450" y="107" width="10" height="10" fill="#ebedf0" rx="2" ry="2"></rect>
<text x="462" y="30" font-family="sans-serif" font-size="8" fill="#767676">Sep</text>
<rect class="day-cell" data-date="2021-09-05" x="462" y="35" width="10" height="10" fill="#ebedf0" rx="2" ry="2"></rect>
<rect class="day-cell" data-date="2021-09-06" x="462" y="47" width="10" height="10" fill="#ebedf0" rx="2" ry="2"></rect>
<rect class="day-cell" data-date="2021-09-07" x="462" y="59" width="10" height="10" fill="#ebedf0" rx="2" ry="2"></rect>
<rect class="day-cell" data-date="2021-09-08" x="462" y="71" width="10" height="10" fill="#ebedf0" rx="2" ry="2"></rect>
<rect class="day-cell" data-date="2021-09-09" x="462" y="83" width="10" height="10" fill="#ebedf0" rx="2" ry="2"></rect>
<rect class="day-cell" data-date="2021-09-10" x="462" y="95" width="10" height="10" fill="#ebedf0" rx="2" ry="2"></rect>
<rect class="day-cell" data-date="2021-09-11" x="462" y="107" width="10" height="10" fill="#ebedf0" rx="2" ry="2"></rect>
<rect class="day-cell" data-date="2021-09-12" x="474" y="35" width="10" height="10" fill="#ebedf0" rx="2" ry="2"></rect>
<rect class="day-cell" data-date="2021-09-13" x="474" y="47" width="10" height="10" fill="#ebedf0" rx="2" ry="2"></rect>
<rect class="day-cell" data-date="2021-09-14" x="474" y="59" width="10" height="10" fill="#ebedf0" rx="2" ry="2"></rect>
<rect class="day-cell" data-date="2021-09-15" x="474" y="71" width="10" height="10" fill="#ebedf0" rx="2" ry="2"></rect>
<rect class="day-cell" data-date="2021-09-16" x="474" y="83" width="10" height="10" fill="#ebedf0" rx="2" ry="2"></rect>
<rect class="day-cell" data-date="2021-09-17" x="474" y="95" width="10" height="10" fill="#ebedf0" rx="2" ry="2"></rect>
<rect class="day-cell" data-date="2021-09-18" x="474" y="107" width="10" height="10" fill="#ebedf0" rx="2" ry="2"></rect>
<rect class="day-cell" data-date="2021-09-19" x="486" y="35" width="10" height="10" fill="#ebedf0" rx="2" ry="2"></rect>
<rect class="day-cell" data-date="2021-09-20" x="486" y="47" width="10" height="10" fill="#ebedf0" rx="2" ry="2"></rect>
<rect class="day-cell" data-date="2021-09-21" x="486" y="59" width="10" height="10" fill="#ebedf0" rx="2" ry="2"></rect>
<rect class="day-cell" data-date="2021-09-22" x="486" y="71" width="10" height="10" fill="#ebedf0" rx="2" ry="2"></rect>
<rect class="day-cell" data-date="2021-09-23" x="486" y="83" width="10" height="10" fill="#ebedf0" rx="2" ry="2"></rect>
<rect class="day-cell" data-date="2021-09-24" x="486" y="95" width="10" height="10" fill="#ebedf0" rx="2" ry="2"></rect>
<rect class="day-cell" data-date="2021-09-25" x="486" y="107" width="10" height="10" fill="#ebedf0" rx="2" ry="2"></rect>
<rect class="day-cell" data-date="2021-09-26" x="498" y="35" width="10" height="10" fill="#ebedf0" rx="2" ry="2"></rect>
<rect class="day-cell" data-date="2021-09-27" x="498" y="47" width="10" height="10" fill="#ebedf0" rx="2" ry="2"></rect>
<rect class="day-cell" data-date="2021-09-28" x="498" y="59" width="10" height="10" fill="#ebedf0" rx="2" ry="2"></rect>
<rect class="day-cell" data-date="2021-09-29" x="498" y="71" width="10" height="10" fill="#ebedf0" rx="2" ry="2"></rect>
<rect class="day-cell" data-date="2021-09-30" x="498" y="83" width="10" height="10" fill="#ebedf0" rx="2" ry="2"></rect>
<rect class="day-cell" data-date="2021-10-01" x="498" y="95" width="10" height="10" fill="#ebedf0" rx="2" ry="2"></rect>
<rect class="day-cell" data-date="2021-10-02" x="498" y="107" width="10" height="10" fill="#ebedf0" rx="2" ry="2"></rect>
<text x="510" y="30" font-family="sans-serif" font-size="8" fill="#767676">Oct</text>
<rect class="day-cell" data-date="2021-10-03" x="510" y="35" width="10" height="10" fill="#ebedf0" rx="2" ry="2"></rect>
<rect class="day-cell" data-date="2021-10-04" x="510" y="47" width="10" height="10" fill="#ebedf0" rx="2" ry="2"></rect>
<rect class="day-cell" data-date="2021-10-05" x="510" y="59" width="10" height="10" fill="#ebedf0" rx="2" ry="2"></rect>
<rect class="day-cell" data-date="2021-10-06" x="510" y="71" width="10" height="10" fill="#ebedf0" rx="2" ry="2"></rect>
<rect class="day-cell" data-date="2021-10-07" x="510" y="83" width="10" height="10" fill="#ebedf0" rx="2" ry="2"></rect>
<rect class="day-cell" data-date="2021-10-08" x="510" y="95" width="10" height="10" fill="#ebedf0" rx="2" ry="2"></rect>
<rect class="day-cell" data-date="2021-10-09" x="510" y="107" width="10" height="10" fill="#ebedf0" rx="2" ry="2"></rect>
<rect class="day-cell" data-date="2021-10-10" x="522" y="35" width="10" height="10" fill="#ebedf0" rx="2" ry="2"></rect>
<rect class="day-cell" data-date="2021-10-11" x="522" y="47" width="10" height="10" fill="#ebedf0" rx="2" ry="2"></rect>
<rect class="day-cell" data-date="2021-10-12" x="522" y="59" width="10" height="10" fill="#ebedf0" rx="2" ry="2"></rect>
<rect class="day-cell" data-date="2021-10-13" x="522" y="71" width="10" height="10" fill="#ebedf0" rx="2" ry="2"></rect>
<rect class="day-cell" data-date="2021-10-14" x="522" y="83" width="10" height="10" fill="#ebedf0" rx="2" ry="2"></rect>
<a href="https://github.com/kreier/benchmark/commit/e20e5c33207a4315476ad60041c4ebb5bacef9fc"><rect class="day-cell" data-date="2021-10-15" x="522" y="95" width="10" height="10" fill="#fff3e0" rx="2" ry="2"></rect></a>
<rect class="day-cell" data-date="2021-10-16" x="522" y="107" width="10" height="10" fill="#ebedf0" rx="2" ry="2"></rect>
<rect class="day-cell" data-date="2021-10-17" x="534" y="35" width="10" height="10" fill="#ebedf0" rx="2" ry="2"></rect>
<rect class="day-cell" data-date="2021-10-18" x="534" y="47" width="10" height="10" fill="#ebedf0" rx="2" ry="2"></rect>
<a href="https://github.com/kreier/benchmark/commit/30a8d29d6f0ec8da35559a9bf4ecdb13cb4af2ad"><rect class="day-cell" data-date="2021-10-19" x="534" y="59" width="10" height="10" fill="#fff3e0" rx="2" ry="2"></rect></a>
<rect class="day-cell" data-date="2021-10-20" x="534" y="71" width="10" height="10" fill="#ebedf0" rx="2" ry="2"></rect>
<rect class="day-cell" data-date="2021-10-21" x="534" y="83" width="10" height="10" fill="#ebedf0" rx="2" ry="2"></rect>
<rect class="day-cell" data-date="2021-10-22" x="534" y="95" width="10" height="10" fill="#ebedf0" rx="2" ry="2"></rect>
<rect class="day-cell" data-date="2021-10-23" x="534" y="107" width="10" height="10" fill="#ebedf0" rx="2" ry="2"></rect>
<rect class="day-cell" data-date="2021-10-24" x="546" y="35" width="10" height="10" fill="#ebedf0" rx="2" ry="2"></rect>
<rect class="day-cell" data-date="2021-10-25" x="546" y="47" width="10" height="10" fill="#ebedf0" rx="2" ry="2"></rect>
<rect class="day-cell" data-date="2021-10-26" x="546" y="59" width="10" height="10" fill="#ebedf0" rx="2" ry="2"></rect>
<rect class="day-cell" data-date="2021-10-27" x="546" y="71" width="10" height="10" fill="#ebedf0" rx="2" ry="2"></rect>
<rect class="day-cell" data-date="2021-10-28" x="546" y="83" width="10" height="10" fill="#ebedf0" rx="2" ry="2"></rect>
<rect class="day-cell" data-date="2021-10-29" x="546" y="95" width="10" height="10" fill="#ebedf0" rx="2" ry="2"></rect>
<rect class="day-cell" data-date="2021-10-30" x="546" y="107" width="10" height="10" fill="#ebedf0" rx="2" ry="2"></rect>
<rect class="day-cell" data-date="2021-10-31" x="558" y="35" width="10" height="10" fill="#ebedf0" rx="2" ry="2"></rect>
<rect class="day-cell" data-date="2021-11-01" x="558" y="47" width="10" height="10" fill="#ebedf0" rx="2" ry="2"></rect>
<rect class="day-cell" data-date="2021-11-02" x="558" y="59" width="10" height="10" fill="#ebedf0" rx="2" ry="2"></rect>
<rect class="day-cell" data-date="2021-11-03" x="558" y="71" width="10" height="10" fill="#ebedf0" rx="2" ry="2"></rect>
<rect class="day-cell" data-date="2021-11-04" x="558" y="83" width="10" height="10" fill="#ebedf0" rx="2" ry="2"></rect>
<rect class="day-cell" data-date="2021-11-05" x="558" y="95" width="10" height="10" fill="#ebedf0" rx="2" ry="2"></rect>
<rect class="day-cell" data-date="2021-11-06" x="558" y="107" width="10" height="10" fill="#ebedf0" rx="2" ry="2"></rect>
<text x="570" y="30" font-family="sans-serif" font-size="8" fill="#767676">Nov</text>
<rect class="day-cell" data-date="2021-11-07" x="570" y="35" width="10" height="10" fill="#ebedf0" rx="2" ry="2"></rect>
<rect class="day-cell" data-date="2021-11-08" x="570" y="47" width="10" height="10" fill="#ebedf0" rx="2" ry="2"></rect>
<rect class="day-cell" data-date="2021-11-09" x="570" y="59" width="10" height="10" fill="#ebedf0" rx="2" ry="2"></rect>
<rect class="day-cell" data-date="2021-11-10" x="570" y="71" width="10" height="10" fill="#ebedf0" rx="2" ry="2"></rect>
<rect class="day-cell" data-date="2021-11-11" x="570" y="83" width="10" height="10" fill="#ebedf0" rx="2" ry="2"></rect>
<rect class="day-cell" data-date="2021-11-12" x="570" y="95" width="10" height="10" fill="#ebedf0" rx="2" ry="2"></rect>
<rect class="day-cell" data-date="2021-11-13" x="570" y="107" width="10" height="10" fill="#ebedf0" rx="2" ry="2"></rect>
<rect class="day-cell" data-date="2021-11-14" x="582" y="35" width="10" height="10" fill="#ebedf0" rx="2" ry="2"></rect>
<rect class="day-cell" data-date="2021-11-15" x="582" y="47" width="10" height="10" fill="#ebedf0" rx="2" ry="2"></rect>
<rect class="day-cell" data-date="2021-11-16" x="582" y="59" width="10" height="10" fill="#ebedf0" rx="2" ry="2"></rect>
<rect class="day-cell" data-date="2021-11-17" x="582" y="71" width="10" height="10" fill="#ebedf0" rx="2" ry="2"></rect>
<rect class="day-cell" data-date="2021-11-18" x="582" y="83" width="10" height="10" fill="#ebedf0" rx="2" ry="2"></rect>
<rect class="day-cell" data-date="2021-11-19" x="582" y="95" width="10" height="10" fill="#ebedf0" rx="2" ry="2"></rect>
<rect class="day-cell" data-date="2021-11-20" x="582" y="107" width="10" height="10" fill="#ebedf0" rx="2" ry="2"></rect>
<rect class="day-cell" data-date="2021-11-21" x="594" y="35" width="10" height="10" fill="#ebedf0" rx="2" ry="2"></rect>
<rect class="day-cell" data-date="2021-11-22" x="594" y="47" width="10" height="10" fill="#ebedf0" rx="2" ry="2"></rect>
<rect class="day-cell" data-date="2021-11-23" x="594" y="59" width="10" height="10" fill="#ebedf0" rx="2" ry="2"></rect>
<rect class="day-cell" data-date="2021-11-24" x="594" y="71" width="10" height="10" fill="#ebedf0" rx="2" ry="2"></rect>
<rect class="day-cell" data-date="2021-11-25" x="594" y="83" width="10" height="10" fill="#ebedf0" rx="2" ry="2"></rect>
<rect class="day-cell" data-date="2021-11-26" x="594" y="95" width="10" height="10" fill="#ebedf0" rx="2" ry="2"></rect>
<rect class="day-cell" data-date="2021-11-27" x="594" y="107" width="10" height="10" fill="#ebedf0" rx="2" ry="2"></rect>
<rect class="day-cell" data-date="2021-11-28" x="606" y="35" width="10" height="10" fill="#ebedf0" rx="2" ry="2"></rect>
<rect class="day-cell" data-date="2021-11-29" x="606" y="47" width="10" height="10" fill="#ebedf0" rx="2" ry="2"></rect>
<a href="https://github.com/kreier/ar65view/commit/0edbea6976126fea85474c4ae37bec2efa2f86ca"><rect class="day-cell" data-date="2021-11-30" x="606" y="59" width="10" height="10" fill="#fff3e0" rx="2" ry="2"></rect></a>
<rect class="day-cell" data-date="2021-12-01" x="606" y="71" width="10" height="10" fill="#ebedf0" rx="2" ry="2"></rect>
<rect class="day-cell" data-date="2021-12-02" x="606" y="83" width="10" height="10" fill="#ebedf0" rx="2" ry="2"></rect>
<rect class="day-cell" data-date="2021-12-03" x="606" y="95" width="10" height="10" fill="#ebedf0" rx="2" ry="2"></rect>
<rect class="day-cell" data-date="2021-12-04" x="606" y="107" width="10" height="10" fill="#ebedf0" rx="2" ry="2"></rect>
<text x="618" y="30" font-family="sans-serif" font-size="8" fill="#767676">Dec</text>
<rect class="day-cell" data-date="2021-12-05" x="618" y="35" width="10" height="10" fill="#ebedf0" rx="2" ry="2"></rect>
<rect class="day-cell" data-date="2021-12-06" x="618" y="47" width="10" height="10" fill="#ebedf0" rx="2" ry="2"></rect>
<rect class="day-cell" data-date="2021-12-07" x="618" y="59" width="10" height="10" fill="#ebedf0" rx="2" ry="2"></rect>
<rect class="day-cell" data-date="2021-12-08" x="618" y="71" width="10" height="10" fill="#ebedf0" rx="2" ry="2"></rect>
<a href="https://github.com/kreier/ESP32/commit/17e31342a4d4218fa0d47b653b53d96dae467bc1"><rect class="day-cell" data-date="2021-12-09" x="618" y="83" width="10" height="10" fill="#fb8c00" rx="2" ry="2"></rect></a>
<a href="https://github.com/kreier/ESP32/commit/a32c98fd96a4cb5de9cf598bcc9a172d87e7385d"><rect class="day-cell" data-date="2021-12-10" x="618" y="95" width="10" height="10" fill="#fff3e0" rx="2" ry="2"></rect></a>
<rect class="day-cell" data-date="2021-12-11" x="618" y="107" width="10" height="10" fill="#ebedf0" rx="2" ry="2"></rect>
<rect class="day-cell" data-date="2021-12-12" x="630" y="35" width="10" height="10" fill="#ebedf0" rx="2" ry="2"></rect>
<a href="https://github.com/kreier/ESP32/commit/2632c6ab6fdcc74742ee95e0e0a94a9049b743af"><rect class="day-cell" data-date="2021-12-13" x="630" y="47" width="10" height="10" fill="#fff3e0" rx="2" ry="2"></rect></a>
<rect class="day-cell" data-date="2021-12-14" x="630" y="59" width="10" height="10" fill="#ebedf0" rx="2" ry="2"></rect>
<rect class="day-cell" data-date="2021-12-15" x="630" y="71" width="10" height="10" fill="#ebedf0" rx="2" ry="2"></rect>
<a href="https://github.com/kreier/ESP32/commit/0a48b949c9476c9b70fb863f82c2919b9aadc059"><rect class="day-cell" data-date="2021-12-16" x="630" y="83" width="10" height="10" fill="#ffcc80" rx="2" ry="2"></rect></a>
<rect class="day-cell" data-date="2021-12-17" x="630" y="95" width="10" height="10" fill="#ebedf0" rx="2" ry="2"></rect>
<rect class="day-cell" data-date="2021-12-18" x="630" y="107" width="10" height="10" fill="#ebedf0" rx="2" ry="2"></rect>
<rect class="day-cell" data-date="2021-12-19" x="642" y="35" width="10" height="10" fill="#ebedf0" rx="2" ry="2"></rect>
<a href="https://github.com/kreier/benchmark/commit/b4b1b18ca0271a84584047c3c5b9bbd48ba6d721"><rect class="day-cell" data-date="2021-12-20" x="642" y="47" width="10" height="10" fill="#fff3e0" rx="2" ry="2"></rect></a>
<a href="https://github.com/kreier/aisvn/commit/c6dda816c70b21a7a800b3af01f4a806ab551f69"><rect class="day-cell" data-date="2021-12-21" x="642" y="59" width="10" height="10" fill="#fb8c00" rx="2" ry="2"></rect></a>
<rect class="day-cell" data-date="2021-12-22" x="642" y="71" width="10" height="10" fill="#ebedf0" rx="2" ry="2"></rect>
<a href="https://github.com/kreier/history/commit/8e875e8c2c71295efc95cc4e7341561b1002493d"><rect class="day-cell" data-date="2021-12-23" x="642" y="83" width="10" height="10" fill="#ffa726" rx="2" ry="2"></rect></a>
<rect class="day-cell" data-date="2021-12-24" x="642" y="95" width="10" height="10" fill="#ebedf0" rx="2" ry="2"></rect>
<rect class="day-cell" data-date="2021-12-25" x="642" y="107" width="10" height="10" fill="#ebedf0" rx="2" ry="2"></rect>
<rect class="day-cell" data-date="2021-12-26" x="654" y="35" width="10" height="10" fill="#ebedf0" rx="2" ry="2"></rect>
<rect class="day-cell" data-date="2021-12-27" x="654" y="47" width="10" height="10" fill="#ebedf0" rx="2" ry="2"></rect>
<rect class="day-cell" data-date="2021-12-28" x="654" y="59" width="10" height="10" fill="#ebedf0" rx="2" ry="2"></rect>
<rect class="day-cell" data-date="2021-12-29" x="654" y="71" width="10" height="10" fill="#ebedf0" rx="2" ry="2"></rect>
<rect class="day-cell" data-date="2021-12-30" x="654" y="83" width="10" height="10" fill="#ebedf0" rx="2" ry="2"></rect>
<rect class="day-cell" data-date="2021-12-31" x="654" y="95" width="10" height="10" fill="#ebedf0" rx="2" ry="2"></rect>
</svg>