<svg viewBox="0 0 676 119" xmlns="http://www.w3.org/2000/svg" style="background-color: white;">
<text x="5" y="15" font-family="sans-serif" font-size="14" font-weight="bold" fill="#24292e">1999</text>
<text x="55" y="15" font-family="sans-serif" font-size="9" fill="#767676">Days documented: 2, Github: 0 (0), Quartz: 1 (1), Wordpress: 0 (0), Legacy: 1 (1)</text>
<text x="5" y="56" font-family="sans-serif" font-size="8" fill="#767676">Mon</text>
<text x="5" y="80" font-family="sans-serif" font-size="8" fill="#767676">Wed</text>
<text x="5" y="104" font-family="sans-serif" font-size="8" fill="#767676">Fri</text>
<a href="https://kreier.github.io/quartz/Diary/1999"><rect class="day-cell" data-date="1999-01-01" x="30" y="95" width="10" height="10" fill="#ef5350" rx="2" ry="2"></rect></a>
<rect class="day-cell" data-date="1999-01-02" x="30" y="107" width="10" height="10" fill="#ebedf0" rx="2" ry="2"></rect>
<text x="42" y="30" font-family="sans-serif" font-size="8" fill="#767676">Jan</text>
<rect class="day-cell" data-date="1999-01-03" x="42" y="35" width="10" height="10" fill="#ebedf0" rx="2" ry="2"></rect>
<rect class="day-cell" data-date="1999-01-04" x="42" y="47" width="10" height="10" fill="#ebedf0" rx="2" ry="2"></rect>
<rect class="day-cell" data-date="1999-01-05" x="42" y="59" width="10" height="10" fill="#ebedf0" rx="2" ry="2"></rect>
<rect class="day-cell" data-date="1999-01-06" x="42" y="71" width="10" height="10" fill="#ebedf0" rx="2" ry="2"></rect>
<rect class="day-cell" data-date="1999-01-07" x="42" y="83" width="10" height="10" fill="#ebedf0" rx="2" ry="2"></rect>
<rect class="day-cell" data-date="1999-01-08" x="42" y="95" width="10" height="10" fill="#ebedf0" rx="2" ry="2"></rect>
<rect class="day-cell" data-date="1999-01-09" x="42" y="107" width="10" height="10" fill="#ebedf0" rx="2" ry="2"></rect>
<rect class="day-cell" data-date="1999-01-10" x="54" y="35" width="10" height="10" fill="#ebedf0" rx="2" ry="2"></rect>
<rect class="day-cell" data-date="1999-01-11" x="54" y="47" width="10" height="10" fill="#ebedf0" rx="2" ry="2"></rect>
<rect class="day-cell" data-date="1999-01-12" x="54" y="59" width="10" height="10" fill="#ebedf0" rx="2" ry="2"></rect>
<rect class="day-cell" data-date="1999-01-13" x="54" y="71" width="10" height="10" fill="#ebedf0" rx="2" ry="2"></rect>
<rect class="day-cell" data-date="1999-01-14" x="54" y="83" width="10" height="10" fill="#ebedf0" rx="2" ry="2"></rect>
<rect class="day-cell" data-date="1999-01-15" x="54" y="95" width="10" height="10" fill="#ebedf0" rx="2" ry="2"></rect>
<rect class="day-cell" data-date="1999-01-16" x="54" y="107" width="10" height="10" fill="#ebedf0" rx="2" ry="2"></rect>
<rect class="day-cell" data-date="1999-01-17" x="66" y="35" width="10" height="10" fill="#ebedf0" rx="2" ry="2"></rect>
<rect class="day-cell" data-date="1999-01-18" x="66" y="47" width="10" height="10" fill="#ebedf0" rx="2" ry="2"></rect>
<rect class="day-cell" data-date="1999-01-19" x="66" y="59" width="10" height="10" fill="#ebedf0" rx="2" ry="2"></rect>
<rect class="day-cell" data-date="1999-01-20" x="66" y="71" width="10" height="10" fill="#ebedf0" rx="2" ry="2"></rect>
<rect class="day-cell" data-date="1999-01-21" x="66" y="83" width="10" height="10" fill="#ebedf0" rx="2" ry="2"></rect>
<rect class="day-cell" data-date="1999-01-22" x="66" y="95" width="10" height="10" fill="#ebedf0" rx="2" ry="2"></rect>
<rect class="day-cell" data-date="1999-01-23" x="66" y="107" width="10" height="10" fill="#ebedf0" rx="2" ry="2"></rect>
<rect class="day-cell" data-date="1999-01-24" x="78" y="35" width="10" height="10" fill="#ebedf0" rx="2" ry="2"></rect>
<rect class="day-cell" data-date="1999-01-25" x="78" y="47" width="10" height="10" fill="#ebedf0" rx="2" ry="2"></rect>
<rect class="day-cell" data-date="1999-01-26" x="78" y="59" width="10" height="10" fill="#ebedf0" rx="2" ry="2"></rect>
<rect class="day-cell" data-date="1999-01-27" x="78" y="71" width="10" height="10" fill="#ebedf0" rx="2" ry="2"></rect>
<rect class="day-cell" data-date="1999-01-28" x="78" y="83" width="10" height="10" fill="#ebedf0" rx="2" ry="2"></rect>
<rect class="day-cell" data-date="1999-01-29" x="78" y="95" width="10" height="10" fill="#ebedf0" rx="2" ry="2"></rect>
<rect class="day-cell" data-date="1999-01-30" x="78" y="107" width="10" height="10" fill="#ebedf0" rx="2" ry="2"></rect>
<rect class="day-cell" data-date="1999-01-31" x="90" y="35" width="10" height="10" fill="#ebedf0" rx="2" ry="2"></rect>
<rect class="day-cell" data-date="1999-02-01" x="90" y="47" width="10" height="10" fill="#ebedf0" rx="2" ry="2"></rect>
<rect class="day-cell" data-date="1999-02-02" x="90" y="59" width="10" height="10" fill="#ebedf0" rx="2" ry="2"></rect>
<rect class="day-cell" data-date="1999-02-03" x="90" y="71" width="10" height="10" fill="#ebedf0" rx="2" ry="2"></rect>
<rect class="day-cell" data-date="1999-02-04" x="90" y="83" width="10" height="10" fill="#ebedf0" rx="2" ry="2"></rect>
<rect class="day-cell" data-date="1999-02-05" x="90" y="95" width="10" height="10" fill="#ebedf0" rx="2" ry="2"></rect>
<rect class="day-cell" data-date="1999-02-06" x="90" y="107" width="10" height="10" fill="#ebedf0" rx="2" ry="2"></rect>
<text x="102" y="30" font-family="sans-serif" font-size="8" fill="#767676">Feb</text>
<rect class="day-cell" data-date="1999-02-07" x="102" y="35" width="10" height="10" fill="#ebedf0" rx="2" ry="2"></rect>
<rect class="day-cell" data-date="1999-02-08" x="102" y="47" width="10" height="10" fill="#ebedf0" rx="2" ry="2"></rect>
<rect class="day-cell" data-date="1999-02-09" x="102" y="59" width="10" height="10" fill="#ebedf0" rx="2" ry="2"></rect>
<rect class="day-cell" data-date="1999-02-10" x="102" y="71" width="10" height="10" fill="#ebedf0" rx="2" ry="2"></rect>
<rect class="day-cell" data-date="1999-02-11" x="102" y="83" width="10" height="10" fill="#ebedf0" rx="2" ry="2"></rect>
<rect class="day-cell" data-date="1999-02-12" x="102" y="95" width="10" height="10" fill="#ebedf0" rx="2" ry="2"></rect>
<rect class="day-cell" data-date="1999-02-13" x="102" y="107" width="10" height="10" fill="#ebedf0" rx="2" ry="2"></rect>
<rect class="day-cell" data-date="1999-02-14" x="114" y="35" width="10" height="10" fill="#ebedf0" rx="2" ry="2"></rect>
<rect class="day-cell" data-date="1999-02-15" x="114" y="47" width="10" height="10" fill="#ebedf0" rx="2" ry="2"></rect>
<rect class="day-cell" data-date="1999-02-16" x="114" y="59" width="10" height="10" fill="#ebedf0" rx="2" ry="2"></rect>
<rect class="day-cell" data-date="1999-02-17" x="114" y="71" width="10" height="10" fill="#ebedf0" rx="2" ry="2"></rect>
<rect class="day-cell" data-date="1999-02-18" x="114" y="83" width="10" height="10" fill="#ebedf0" rx="2" ry="2"></rect>
<rect class="day-cell" data-date="1999-02-19" x="114" y="95" width="10" height="10" fill="#ebedf0" rx="2" ry="2"></rect>
<rect class="day-cell" data-date="1999-02-20" x="114" y="107" width="10" height="10" fill="#ebedf0" rx="2" ry="2"></rect>
<rect class="day-cell" data-date="1999-02-21" x="126" y="35" width="10" height="10" fill="#ebedf0" rx="2" ry="2"></rect>
<rect class="day-cell" data-date="1999-02-22" x="126" y="47" width="10" height="10" fill="#ebedf0" rx="2" ry="2"></rect>
<rect class="day-cell" data-date="1999-02-23" x="126" y="59" width="10" height="10" fill="#ebedf0" rx="2" ry="2"></rect>
<rect class="day-cell" data-date="1999-02-24" x="126" y="71" width="10" height="10" fill="#ebedf0" rx="2" ry="2"></rect>
<rect class="day-cell" data-date="1999-02-25" x="126" y="83" width="10" height="10" fill="#ebedf0" rx="2" ry="2"></rect>
<rect class="day-cell" data-date="1999-02-26" x="126" y="95" width="10" height="10" fill="#ebedf0" rx="2" ry="2"></rect>
<rect class="day-cell" data-date="1999-02-27" x="126" y="107" width="10" height="10" fill="#ebedf0" rx="2" ry="2"></rect>
<rect class="day-cell" data-date="1999-02-28" x="138" y="35" width="10" height="10" fill="#ebedf0" rx="2" ry="2"></rect>
<rect class="day-cell" data-date="1999-03-01" x="138" y="47" width="10" height="10" fill="#ebedf0" rx="2" ry="2"></rect>
<rect class="day-cell" data-date="1999-03-02" x="138" y="59" width="10" height="10" fill="#ebedf0" rx="2" ry="2"></rect>
<rect class="day-cell" data-date="1999-03-03" x="138" y="71" width="10" height="10" fill="#ebedf0" rx="2" ry="2"></rect>
<rect class="day-cell" data-date="1999-03-04" x="138" y="83" width="10" height="10" fill="#ebedf0" rx="2" ry="2"></rect>
<rect class="day-cell" data-date="1999-03-05" x="138" y="95" width="10" height="10" fill="#ebedf0" rx="2" ry="2"></rect>
<rect class="day-cell" data-date="1999-03-06" x="138" y="107" width="10" height="10" fill="#ebedf0" rx="2" ry="2"></rect>
<text x="150" y="30" font-family="sans-serif" font-size="8" fill="#767676">Mar</text>
<rect class="day-cell" data-date="1999-03-07" x="150" y="35" width="10" height="10" fill="#ebedf0" rx="2" ry="2"></rect>
<rect class="day-cell" data-date="1999-03-08" x="150" y="47" width="10" height="10" fill="#ebedf0" rx="2" ry="2"></rect>
<rect class="day-cell" data-date="1999-03-09" x="150" y="59" width="10" height="10" fill="#ebedf0" rx="2" ry="2"></rect>
<rect class="day-cell" data-date="1999-03-10" x="150" y="71" width="10" height="10" fill="#ebedf0" rx="2" ry="2"></rect>
<rect class="day-cell" data-date="1999-03-11" x="150" y="83" width="10" height="10" fill="#ebedf0" rx="2" ry="2"></rect>
<rect class="day-cell" data-date="1999-03-12" x="150" y="95" width="10" height="10" fill="#ebedf0" rx="2" ry="2"></rect>
<rect class="day-cell" data-date="1999-03-13" x="150" y="107" width="10" height="10" fill="#ebedf0" rx="2" ry="2"></rect>
<rect class="day-cell" data-date="1999-03-14" x="162" y="35" width="10" height="10" fill="#ebedf0" rx="2" ry="2"></rect>
<rect class="day-cell" data-date="1999-03-15" x="162" y="47" width="10" height="10" fill="#ebedf0" rx="2" ry="2"></rect>
<rect class="day-cell" data-date="1999-03-16" x="162" y="59" width="10" height="10" fill="#ebedf0" rx="2" ry="2"></rect>
<rect class="day-cell" data-date="1999-03-17" x="162" y="71" width="10" height="10" fill="#ebedf0" rx="2" ry="2"></rect>
<rect class="day-cell" data-date="1999-03-18" x="162" y="83" width="10" height="10" fill="#ebedf0" rx="2" ry="2"></rect>
<rect class="day-cell" data-date="1999-03-19" x="162" y="95" width="10" height="10" fill="#ebedf0" rx="2" ry="2"></rect>
<rect class="day-cell" data-date="1999-03-20" x="162" y="107" width="10" height="10" fill="#ebedf0" rx="2" ry="2"></rect>
<rect class="day-cell" data-date="1999-03-21" x="174" y="35" width="10" height="10" fill="#ebedf0" rx="2" ry="2"></rect>
<rect class="day-cell" data-date="1999-03-22" x="174" y="47" width="10" height="10" fill="#ebedf0" rx="2" ry="2"></rect>
<rect class="day-cell" data-date="1999-03-23" x="174" y="59" width="10" height="10" fill="#ebedf0" rx="2" ry="2"></rect>
<rect class="day-cell" data-date="1999-03-24" x="174" y="71" width="10" height="10" fill="#ebedf0" rx="2" ry="2"></rect>
<rect class="day-cell" data-date="1999-03-25" x="174" y="83" width="10" height="10" fill="#ebedf0" rx="2" ry="2"></rect>
<rect class="day-cell" data-date="1999-03-26" x="174" y="95" width="10" height="10" fill="#ebedf0" rx="2" ry="2"></rect>
<rect class="day-cell" data-date="1999-03-27" x="174" y="107" width="10" height="10" fill="#ebedf0" rx="2" ry="2"></rect>
<rect class="day-cell" data-date="1999-03-28" x="186" y="35" width="10" height="10" fill="#ebedf0" rx="2" ry="2"></rect>
<rect class="day-cell" data-date="1999-03-29" x="186" y="47" width="10" height="10" fill="#ebedf0" rx="2" ry="2"></rect>
<rect class="day-cell" data-date="1999-03-30" x="186" y="59" width="10" height="10" fill="#ebedf0" rx="2" ry="2"></rect>
<rect class="day-cell" data-date="1999-03-31" x="186" y="71" width="10" height="10" fill="#ebedf0" rx="2" ry="2"></rect>
<rect class="day-cell" data-date="1999-04-01" x="186" y="83" width="10" height="10" fill="#ebedf0" rx="2" ry="2"></rect>
<rect class="day-cell" data-date="1999-04-02" x="186" y="95" width="10" height="10" fill="#ebedf0" rx="2" ry="2"></rect>
<rect class="day-cell" data-date="1999-04-03" x="186" y="107" width="10" height="10" fill="#ebedf0" rx="2" ry="2"></rect>
<text x="198" y="30" font-family="sans-serif" font-size="8" fill="#767676">Apr</text>
<rect class="day-cell" data-date="1999-04-04" x="198" y="35" width="10" height="10" fill="#ebedf0" rx="2" ry="2"></rect>
<rect class="day-cell" data-date="1999-04-05" x="198" y="47" width="10" height="10" fill="#ebedf0" rx="2" ry="2"></rect>
<rect class="day-cell" data-date="1999-04-06" x="198" y="59" width="10" height="10" fill="#ebedf0" rx="2" ry="2"></rect>
<rect class="day-cell" data-date="1999-04-07" x="198" y="71" width="10" height="10" fill="#ebedf0" rx="2" ry="2"></rect>
<rect class="day-cell" data-date="1999-04-08" x="198" y="83" width="10" height="10" fill="#ebedf0" rx="2" ry="2"></rect>
<rect class="day-cell" data-date="1999-04-09" x="198" y="95" width="10" height="10" fill="#ebedf0" rx="2" ry="2"></rect>
<rect class="day-cell" data-date="1999-04-10" x="198" y="107" width="10" height="10" fill="#ebedf0" rx="2" ry="2"></rect>
<rect class="day-cell" data-date="1999-04-11" x="210" y="35" width="10" height="10" fill="#ebedf0" rx="2" ry="2"></rect>
<rect class="day-cell" data-date="1999-04-12" x="210" y="47" width="10" height="10" fill="#ebedf0" rx="2" ry="2"></rect>
<rect class="day-cell" data-date="1999-04-13" x="210" y="59" width="10" height="10" fill="#ebedf0" rx="2" ry="2"></rect>
<rect class="day-cell" data-date="1999-04-14" x="210" y="71" width="10" height="10" fill="#ebedf0" rx="2" ry="2"></rect>
<rect class="day-cell" data-date="1999-04-15" x="210" y="83" width="10" height="10" fill="#ebedf0" rx="2" ry="2"></rect>
<rect class="day-cell" data-date="1999-04-16" x="210" y="95" width="10" height="10" fill="#ebedf0" rx="2" ry="2"></rect>
<rect class="day-cell" data-date="1999-04-17" x="210" y="107" width="10" height="10" fill="#ebedf0" rx="2" ry="2"></rect>
<rect class="day-cell" data-date="1999-04-18" x="222" y="35" width="10" height="10" fill="#ebedf0" rx="2" ry="2"></rect>
<rect class="day-cell" data-date="1999-04-19" x="222" y="47" width="10" height="10" fill="#ebedf0" rx="2" ry="2"></rect>
<rect class="day-cell" data-date="1999-04-20" x="222" y="59" width="10" height="10" fill="#ebedf0" rx="2" ry="2"></rect>
<rect class="day-cell" data-date="1999-04-21" x="222" y="71" width="10" height="10" fill="#ebedf0" rx="2" ry="2"></rect>
<rect class="day-cell" data-date="1999-04-22" x="222" y="83" width="10" height="10" fill="#ebedf0" rx="2" ry="2"></rect>
<rect class="day-cell" data-date="1999-04-23" x="222" y="95" width="10" height="10" fill="#ebedf0" rx="2" ry="2"></rect>
<rect class="day-cell" data-date="1999-04-24" x="222" y="107" width="10" height="10" fill="#ebedf0" rx="2" ry="2"></rect>
<rect class="day-cell" data-date="1999-04-25" x="234" y="35" width="10" height="10" fill="#ebedf0" rx="2" ry="2"></rect>
<rect class="day-cell" data-date="1999-04-26" x="234" y="47" width="10" height="10" fill="#ebedf0" rx="2" ry="2"></rect>
<rect class="day-cell" data-date="1999-04-27" x="234" y="59" width="10" height="10" fill="#ebedf0" rx="2" ry="2"></rect>
<rect class="day-cell" data-date="1999-04-28" x="234" y="71" width="10" height="10" fill="#ebedf0" rx="2" ry="2"></rect>
<rect class="day-cell" data-date="1999-04-29" x="234" y="83" width="10" height="10" fill="#ebedf0" rx="2" ry="2"></rect>
<rect class="day-cell" data-date="1999-04-30" x="234" y="95" width="10" height="10" fill="#ebedf0" rx="2" ry="2"></rect>
<rect class="day-cell" data-date="1999-05-01" x="234" y="107" width="10" height="10" fill="#ebedf0" rx="2" ry="2"></rect>
<text x="246" y="30" font-family="sans-serif" font-size="8" fill="#767676">May</text>
<rect class="day-cell" data-date="1999-05-02" x="246" y="35" width="10" height="10" fill="#ebedf0" rx="2" ry="2"></rect>
<rect class="day-cell" data-date="1999-05-03" x="246" y="47" width="10" height="10" fill="#ebedf0" rx="2" ry="2"></rect>
<rect class="day-cell" data-date="1999-05-04" x="246" y="59" width="10" height="10" fill="#ebedf0" rx="2" ry="2"></rect>
<rect class="day-cell" data-date="1999-05-05" x="246" y="71" width="10" height="10" fill="#ebedf0" rx="2" ry="2"></rect>
<rect class="day-cell" data-date="1999-05-06" x="246" y="83" width="10" height="10" fill="#ebedf0" rx="2" ry="2"></rect>
<rect class="day-cell" data-date="1999-05-07" x="246" y="95" width="10" height="10" fill="#ebedf0" rx="2" ry="2"></rect>
<rect class="day-cell" data-date="1999-05-08" x="246" y="107" width="10" height="10" fill="#ebedf0" rx="2" ry="2"></rect>
<rect class="day-cell" data-date="1999-05-09" x="258" y="35" width="10" height="10" fill="#ebedf0" rx="2" ry="2"></rect>
<rect class="day-cell" data-date="1999-05-10" x="258" y="47" width="10" height="10" fill="#ebedf0" rx="2" ry="2"></rect>
<rect class="day-cell" data-date="1999-05-11" x="258" y="59" width="10" height="10" fill="#ebedf0" rx="2" ry="2"></rect>
<rect class="day-cell" data-date="1999-05-12" x="258" y="71" width="10" height="10" fill="#ebedf0" rx="2" ry="2"></rect>
<rect class="day-cell" data-date="1999-05-13" x="258" y="83" width="10" height="10" fill="#ebedf0" rx="2" ry="2"></rect>
<rect class="day-cell" data-date="1999-05-14" x="258" y="95" width="10" height="10" fill="#ebedf0" rx="2" ry="2"></rect>
<rect class="day-cell" data-date="1999-05-15" x="258" y="107" width="10" height="10" fill="#ebedf0" rx="2" ry="2"></rect>
<rect class="day-cell" data-date="1999-05-16" x="270" y="35" width="10" height="10" fill="#ebedf0" rx="2" ry="2"></rect>
<rect class="day-cell" data-date="1999-05-17" x="270" y="47" width="10" height="10" fill="#ebedf0" rx="2" ry="2"></rect>
<rect class="day-cell" data-date="1999-05-18" x="270" y="59" width="10" height="10" fill="#ebedf0" rx="2" ry="2"></rect>
<rect class="day-cell" data-date="1999-05-19" x="270" y="71" width="10" height="10" fill="#ebedf0" rx="2" ry="2"></rect>
<rect class="day-cell" data-date="1999-05-20" x="270" y="83" width="10" height="10" fill="#ebedf0" rx="2" ry="2"></rect>
<rect class="day-cell" data-date="1999-05-21" x="270" y="95" width="10" height="10" fill="#ebedf0" rx="2" ry="2"></rect>
<rect class="day-cell" data-date="1999-05-22" x="270" y="107" width="10" height="10" fill="#ebedf0" rx="2" ry="2"></rect>
<rect class="day-cell" data-date="1999-05-23" x="282" y="35" width="10" height="10" fill="#ebedf0" rx="2" ry="2"></rect>
<rect class="day-cell" data-date="1999-05-24" x="282" y="47" width="10" height="10" fill="#ebedf0" rx="2" ry="2"></rect>
<rect class="day-cell" data-date="1999-05-25" x="282" y="59" width="10" height="10" fill="#ebedf0" rx="2" ry="2"></rect>
<rect class="day-cell" data-date="1999-05-26" x="282" y="71" width="10" height="10" fill="#ebedf0" rx="2" ry="2"></rect>
<rect class="day-cell" data-date="1999-05-27" x="282" y="83" width="10" height="10" fill="#ebedf0" rx="2" ry="2"></rect>
<rect class="day-cell" data-date="1999-05-28" x="282" y="95" width="10" height="10" fill="#ebedf0" rx="2" ry="2"></rect>
<rect class="day-cell" data-date="1999-05-29" x="282" y="107" width="10" height="10" fill="#ebedf0" rx="2" ry="2"></rect>
<rect class="day-cell" data-date="1999-05-30" x="294" y="35" width="10" height="10" fill="#ebedf0" rx="2" ry="2"></rect>
<rect class="day-cell" data-date="1999-05-31" x="294" y="47" width="10" height="10" fill="#ebedf0" rx="2" ry="2"></rect>
<rect class="day-cell" data-date="1999-06-01" x="294" y="59" width="10" height="10" fill="#ebedf0" rx="2" ry="2"></rect>
<rect class="day-cell" data-date="1999-06-02" x="294" y="71" width="10" height="10" fill="#ebedf0" rx="2" ry="2"></rect>
<rect class="day-cell" data-date="1999-06-03" x="294" y="83" width="10" height="10" fill="#ebedf0" rx="2" ry="2"></rect>
<rect class="day-cell" data-date="1999-06-04" x="294" y="95" width="10" height="10" fill="#ebedf0" rx="2" ry="2"></rect>
<rect class="day-cell" data-date="1999-06-05" x="294" y="107" width="10" height="10" fill="#ebedf0" rx="2" ry="2"></rect>
<text x="306" y="30" font-family="sans-serif" font-size="8" fill="#767676">Jun</text>
<rect class="day-cell" data-date="1999-06-06" x="306" y="35" width="10" height="10" fill="#ebedf0" rx="2" ry="2"></rect>
<rect class="day-cell" data-date="1999-06-07" x="306" y="47" width="10" height="10" fill="#ebedf0" rx="2" ry="2"></rect>
<rect class="day-cell" data-date="1999-06-08" x="306" y="59" width="10" height="10" fill="#ebedf0" rx="2" ry="2"></rect>
<rect class="day-cell" data-date="1999-06-09" x="306" y="71" width="10" height="10" fill="#ebedf0" rx="2" ry="2"></rect>
<rect class="day-cell" data-date="1999-06-10" x="306" y="83" width="10" height="10" fill="#ebedf0" rx="2" ry="2"></rect>
<rect class="day-cell" data-date="1999-06-11" x="306" y="95" width="10" height="10" fill="#ebedf0" rx="2" ry="2"></rect>
<rect class="day-cell" data-date="1999-06-12" x="306" y="107" width="10" height="10" fill="#ebedf0" rx="2" ry="2"></rect>
<rect class="day-cell" data-date="1999-06-13" x="318" y="35" width="10" height="10" fill="#ebedf0" rx="2" ry="2"></rect>
<rect class="day-cell" data-date="1999-06-14" x="318" y="47" width="10" height="10" fill="#ebedf0" rx="2" ry="2"></rect>
<rect class="day-cell" data-date="1999-06-15" x="318" y="59" width="10" height="10" fill="#ebedf0" rx="2" ry="2"></rect>
<rect class="day-cell" data-date="1999-06-16" x="318" y="71" width="10" height="10" fill="#ebedf0" rx="2" ry="2"></rect>
<rect class="day-cell" data-date="1999-06-17" x="318" y="83" width="10" height="10" fill="#ebedf0" rx="2" ry="2"></rect>
<rect class="day-cell" data-date="1999-06-18" x="318" y="95" width="10" height="10" fill="#ebedf0" rx="2" ry="2"></rect>
<rect class="day-cell" data-date="1999-06-19" x="318" y="107" width="10" height="10" fill="#ebedf0" rx="2" ry="2"></rect>
<rect class="day-cell" data-date="1999-06-20" x="330" y="35" width="10" height="10" fill="#ebedf0" rx="2" ry="2"></rect>
<rect class="day-cell" data-date="1999-06-21" x="330" y="47" width="10" height="10" fill="#ebedf0" rx="2" ry="2"></rect>
<rect class="day-cell" data-date="1999-06-22" x="330" y="59" width="10" height="10" fill="#ebedf0" rx="2" ry="2"></rect>
<rect class="day-cell" data-date="1999-06-23" x="330" y="71" width="10" height="10" fill="#ebedf0" rx="2" ry="2"></rect>
<rect class="day-cell" data-date="1999-06-24" x="330" y="83" width="10" height="10" fill="#ebedf0" rx="2" ry="2"></rect>
<rect class="day-cell" data-date="1999-06-25" x="330" y="95" width="10" height="10" fill="#ebedf0" rx="2" ry="2"></rect>
<rect class="day-cell" data-date="1999-06-26" x="330" y="107" width="10" height="10" fill="#ebedf0" rx="2" ry="2"></rect>
<rect class="day-cell" data-date="1999-06-27" x="342" y="35" width="10" height="10" fill="#ebedf0" rx="2" ry="2"></rect>
<rect class="day-cell" data-date="1999-06-28" x="342" y="47" width="10" height="10" fill="#ebedf0" rx="2" ry="2"></rect>
<rect class="day-cell" data-date="1999-06-29" x="342" y="59" width="10" height="10" fill="#ebedf0" rx="2" ry="2"></rect>
<rect class="day-cell" data-date="1999-06-30" x="342" y="71" width="10" height="10" fill="#ebedf0" rx="2" ry="2"></rect>
<rect class="day-cell" data-date="1999-07-01" x="342" y="83" width="10" height="10" fill="#ebedf0" rx="2" ry="2"></rect>
<rect class="day-cell" data-date="1999-07-02" x="342" y="95" width="10" height="10" fill="#ebedf0" rx="2" ry="2"></rect>
<rect class="day-cell" data-date="1999-07-03" x="342" y="107" width="10" height="10" fill="#ebedf0" rx="2" ry="2"></rect>
<text x="354" y="30" font-family="sans-serif" font-size="8" fill="#767676">Jul</text>
<rect class="day-cell" data-date="1999-07-04" x="354" y="35" width="10" height="10" fill="#ebedf0" rx="2" ry="2"></rect>
<rect class="day-cell" data-date="1999-07-05" x="354" y="47" width="10" height="10" fill="#ebedf0" rx="2" ry="2"></rect>
<rect class="day-cell" data-date="1999-07-06" x="354" y="59" width="10" height="10" fill="#ebedf0" rx="2" ry="2"></rect>
<rect class="day-cell" data-date="1999-07-07" x="354" y="71" width="10" height="10" fill="#ebedf0" rx="2" ry="2"></rect>
<rect class="day-cell" data-date="1999-07-08" x="354" y="83" width="10" height="10" fill="#ebedf0" rx="2" ry="2"></rect>
<rect class="day-cell" data-date="1999-07-09" x="354" y="95" width="10" height="10" fill="#ebedf0" rx="2" ry="2"></rect>
<rect class="day-cell" data-date="1999-07-10" x="354" y="107" width="10" height="10" fill="#ebedf0" rx="2" ry="2"></rect>
<rect class="day-cell" data-date="1999-07-11" x="366" y="35" width="10" height="10" fill="#ebedf0" rx="2" ry="2"></rect>
<rect class="day-cell" data-date="1999-07-12" x="366" y="47" width="10" height="10" fill="#ebedf0" rx="2" ry="2"></rect>
<rect class="day-cell" data-date="1999-07-13" x="366" y="59" width="10" height="10" fill="#ebedf0" rx="2" ry="2"></rect>
<rect class="day-cell" data-date="1999-07-14" x="366" y="71" width="10" height="10" fill="#ebedf0" rx="2" ry="2"></rect>
<rect class="day-cell" data-date="1999-07-15" x="366" y="83" width="10" height="10" fill="#ebedf0" rx="2" ry="2"></rect>
<rect class="day-cell" data-date="1999-07-16" x="366" y="95" width="10" height="10" fill="#ebedf0" rx="2" ry="2"></rect>
<rect class="day-cell" data-date="1999-07-17" x="366" y="107" width="10" height="10" fill="#ebedf0" rx="2" ry="2"></rect>
<rect class="day-cell" data-date="1999-07-18" x="378" y="35" width="10" height="10" fill="#ebedf0" rx="2" ry="2"></rect>
<rect class="day-cell" data-date="1999-07-19" x="378" y="47" width="10" height="10" fill="#ebedf0" rx="2" ry="2"></rect>
<rect class="day-cell" data-date="1999-07-20" x="378" y="59" width="10" height="10" fill="#ebedf0" rx="2" ry="2"></rect>
<rect class="day-cell" data-date="1999-07-21" x="378" y="71" width="10" height="10" fill="#ebedf0" rx="2" ry="2"></rect>
<rect class="day-cell" data-date="1999-07-22" x="378" y="83" width="10" height="10" fill="#ebedf0" rx="2" ry="2"></rect>
<rect class="day-cell" data-date="1999-07-23" x="378" y="95" width="10" height="10" fill="#ebedf0" rx="2" ry="2"></rect>
<rect class="day-cell" data-date="1999-07-24" x="378" y="107" width="10" height="10" fill="#ebedf0" rx="2" ry="2"></rect>
<rect class="day-cell" data-date="1999-07-25" x="390" y="35" width="10" height="10" fill="#ebedf0" rx="2" ry="2"></rect>
<rect class="day-cell" data-date="1999-07-26" x="390" y="47" width="10" height="10" fill="#ebedf0" rx="2" ry="2"></rect>
<rect class="day-cell" data-date="1999-07-27" x="390" y="59" width="10" height="10" fill="#ebedf0" rx="2" ry="2"></rect>
<rect class="day-cell" data-date="1999-07-28" x="390" y="71" width="10" height="10" fill="#ebedf0" rx="2" ry="2"></rect>
<rect class="day-cell" data-date="1999-07-29" x="390" y="83" width="10" height="10" fill="#ebedf0" rx="2" ry="2"></rect>
<rect class="day-cell" data-date="1999-07-30" x="390" y="95" width="10" height="10" fill="#ebedf0" rx="2" ry="2"></rect>
<rect class="day-cell" data-date="1999-07-31" x="390" y="107" width="10" height="10" fill="#ebedf0" rx="2" ry="2"></rect>
<text x="402" y="30" font-family="sans-serif" font-size="8" fill="#767676">Aug</text>
<rect class="day-cell" data-date="1999-08-01" x="402" y="35" width="10" height="10" fill="#ebedf0" rx="2" ry="2"></rect>
<rect class="day-cell" data-date="1999-08-02" x="402" y="47" width="10" height="10" fill="#ebedf0" rx="2" ry="2"></rect>
<rect class="day-cell" data-date="1999-08-03" x="402" y="59" width="10" height="10" fill="#ebedf0" rx="2" ry="2"></rect>
<rect class="day-cell" data-date="1999-08-04" x="402" y="71" width="10" height="10" fill="#ebedf0" rx="2" ry="2"></rect>
<rect class="day-cell" data-date="1999-08-05" x="402" y="83" width="10" height="10" fill="#ebedf0" rx="2" ry="2"></rect>
<rect class="day-cell" data-date="1999-08-06" x="402" y="95" width="10" height="10" fill="#ebedf0" rx="2" ry="2"></rect>
<rect class="day-cell" data-date="1999-08-07" x="402" y="107" width="10" height="10" fill="#ebedf0" rx="2" ry="2"></rect>
<rect class="day-cell" data-date="1999-08-08" x="414" y="35" width="10" height="10" fill="#ebedf0" rx="2" ry="2"></rect>
<rect class="day-cell" data-date="1999-08-09" x="414" y="47" width="10" height="10" fill="#ebedf0" rx="2" ry="2"></rect>
<rect class="day-cell" data-date="1999-08-10" x="414" y="59" width="10" height="10" fill="#ebedf0" rx="2" ry="2"></rect>
<rect class="day-cell" data-date="1999-08-11" x="414" y="71" width="10" height="10" fill="#ebedf0" rx="2" ry="2"></rect>
<rect class="day-cell" data-date="1999-08-12" x="414" y="83" width="10" height="10" fill="#ebedf0" rx="2" ry="2"></rect>
<rect class="day-cell" data-date="1999-08-13" x="414" y="95" width="10" height="10" fill="#ebedf0" rx="2" ry="2"></rect>
<rect class="day-cell" data-date="1999-08-14" x="414" y="107" width="10" height="10" fill="#ebedf0" rx="2" ry="2"></rect>
<rect class="day-cell" data-date="1999-08-15" x="426" y="35" width="10" height="10" fill="#ebedf0" rx="2" ry="2"></rect>
<rect class="day-cell" data-date="1999-08-16" x="426" y="47" width="10" height="10" fill="#ebedf0" rx="2" ry="2"></rect>
<rect class="day-cell" data-date="1999-08-17" x="426" y="59" width="10" height="10" fill="#ebedf0" rx="2" ry="2"></rect>
<rect class="day-cell" data-date="1999-08-18" x="426" y="71" width="10" height="10" fill="#ebedf0" rx="2" ry="2"></rect>
<rect class="day-cell" data-date="1999-08-19" x="426" y="83" width="10" height="10" fill="#ebedf0" rx="2" ry="2"></rect>
<rect class="day-cell" data-date="1999-08-20" x="426" y="95" width="10" height="10" fill="#ebedf0" rx="2" ry="2"></rect>
<rect class="day-cell" data-date="1999-08-21" x="426" y="107" width="10" height="10" fill="#ebedf0" rx="2" ry="2"></rect>
<rect class="day-cell" data-date="1999-08-22" x="438" y="35" width="10" height="10" fill="#ebedf0" rx="2" ry="2"></rect>
<rect class="day-cell" data-date="1999-08-23" x="438" y="47" width="10" height="10" fill="#ebedf0" rx="2" ry="2"></rect>
<rect class="day-cell" data-date="1999-08-24" x="438" y="59" width="10" height="10" fill="#ebedf0" rx="2" ry="2"></rect>
<rect class="day-cell" data-date="1999-08-25" x="438" y="71" width="10" height="10" fill="#ebedf0" rx="2" ry="2"></rect>
<rect class="day-cell" data-date="1999-08-26" x="438" y="83" width="10" height="10" fill="#ebedf0" rx="2" ry="2"></rect>
<rect class="day-cell" data-date="1999-08-27" x="438" y="95" width="10" height="10" fill="#ebedf0" rx="2" ry="2"></rect>
<rect class="day-cell" data-date="1999-08-28" x="438" y="107" width="10" height="10" fill="#ebedf0" rx="2" ry="2"></rect>
<rect class="day-cell" data-date="1999-08-29" x="450" y="35" width="10" height="10" fill="#ebedf0" rx="2" ry="2"></rect>
<rect class="day-cell" data-date="1999-08-30" x="450" y="47" width="10" height="10" fill="#ebedf0" rx="2" ry="2"></rect>
<rect class="day-cell" data-date="1999-08-31" x="450" y="59" width="10" height="10" fill="#ebedf0" rx="2" ry="2"></rect>
<rect class="day-cell" data-date="1999-09-01" x="450" y="71" width="10" height="10" fill="#ebedf0" rx="2" ry="2"></rect>
<rect class="day-cell" data-date="1999-09-02" x="450" y="83" width="10" height="10" fill="#ebedf0" rx="2" ry="2"></rect>
<rect class="day-cell" data-date="1999-09-03" x="450" y="95" width="10" height="10" fill="#ebedf0" rx="2" ry="2"></rect>
<rect class="day-cell" data-date="1999-09-04" x="450" y="107" width="10" height="10" fill="#ebedf0" rx="2" ry="2"></rect>
<text x="462" y="30" font-family="sans-serif" font-size="8" fill="#767676">Sep</text>
<rect class="day-cell" data-date="1999-09-05" x="462" y="35" width="10" height="10" fill="#ebedf0" rx="2" ry="2"></rect>
<rect class="day-cell" data-date="1999-09-06" x="462" y="47" width="10" height="10" fill="#ebedf0" rx="2" ry="2"></rect>
<rect class="day-cell" data-date="1999-09-07" x="462" y="59" width="10" height="10" fill="#ebedf0" rx="2" ry="2"></rect>
<rect class="day-cell" data-date="1999-09-08" x="462" y="71" width="10" height="10" fill="#ebedf0" rx="2" ry="2"></rect>
<rect class="day-cell" data-date="1999-09-09" x="462" y="83" width="10" height="10" fill="#ebedf0" rx="2" ry="2"></rect>
<rect class="day-cell" data-date="1999-09-10" x="462" y="95" width="10" height="10" fill="#ebedf0" rx="2" ry="2"></rect>
<rect class="day-cell" data-date="1999-09-11" x="462" y="107" width="10" height="10" fill="#ebedf0" rx="2" ry="2"></rect>
<rect class="day-cell" data-date="1999-09-12" x="474" y="35" width="10" height="10" fill="#ebedf0" rx="2" ry="2"></rect>
<rect class="day-cell" data-date="1999-09-13" x="474" y="47" width="10" height="10" fill="#ebedf0" rx="2" ry="2"></rect>
<rect class="day-cell" data-date="1999-09-14" x="474" y="59" width="10" height="10" fill="#ebedf0" rx="2" ry="2"></rect>
<rect class="day-cell" data-date="1999-09-15" x="474" y="71" width="10" height="10" fill="#ebedf0" rx="2" ry="2"></rect>
<rect class="day-cell" data-date="1999-09-16" x="474" y="83" width="10" height="10" fill="#ebedf0" rx="2" ry="2"></rect>
<rect class="day-cell" data-date="1999-09-17" x="474" y="95" width="10" height="10" fill="#ebedf0" rx="2" ry="2"></rect>
<rect class="day-cell" data-date="1999-09-18" x="474" y="107" width="10" height="10" fill="#ebedf0" rx="2" ry="2"></rect>
<rect class="day-cell" data-date="1999-09-19" x="486" y="35" width="10" height="10" fill="#ebedf0" rx="2" ry="2"></rect>
<rect class="day-cell" data-date="1999-09-20" x="486" y="47" width="10" height="10" fill="#ebedf0" rx="2" ry="2"></rect>
<rect class="day-cell" data-date="1999-09-21" x="486" y="59" width="10" height="10" fill="#ebedf0" rx="2" ry="2"></rect>
<rect class="day-cell" data-date="1999-09-22" x="486" y="71" width="10" height="10" fill="#ebedf0" rx="2" ry="2"></rect>
<rect class="day-cell" data-date="1999-09-23" x="486" y="83" width="10" height="10" fill="#ebedf0" rx="2" ry="2"></rect>
<rect class="day-cell" data-date="1999-09-24" x="486" y="95" width="10" height="10" fill="#ebedf0" rx="2" ry="2"></rect>
<rect class="day-cell" data-date="1999-09-25" x="486" y="107" width="10" height="10" fill="#ebedf0" rx="2" ry="2"></rect>
<rect class="day-cell" data-date="1999-09-26" x="498" y="35" width="10" height="10" fill="#ebedf0" rx="2" ry="2"></rect>
<rect class="day-cell" data-date="1999-09-27" x="498" y="47" width="10" height="10" fill="#ebedf0" rx="2" ry="2"></rect>
<rect class="day-cell" data-date="1999-09-28" x="498" y="59" width="10" height="10" fill="#ebedf0" rx="2" ry="2"></rect>
<rect class="day-cell" data-date="1999-09-29" x="498" y="71" width="10" height="10" fill="#ebedf0" rx="2" ry="2"></rect>
<rect class="day-cell" data-date="1999-09-30" x="498" y="83" width="10" height="10" fill="#ebedf0" rx="2" ry="2"></rect>
<rect class="day-cell" data-date="1999-10-01" x="498" y="95" width="10" height="10" fill="#ebedf0" rx="2" ry="2"></rect>
<rect class="day-cell" data-date="1999-10-02" x="498" y="107" width="10" height="10" fill="#ebedf0" rx="2" ry="2"></rect>
<text x="510" y="30" font-family="sans-serif" font-size="8" fill="#767676">Oct</text>
<rect class="day-cell" data-date="1999-10-03" x="510" y="35" width="10" height="10" fill="#ebedf0" rx="2" ry="2"></rect>
<rect class="day-cell" data-date="1999-10-04" x="510" y="47" width="10" height="10" fill="#ebedf0" rx="2" ry="2"></rect>
<rect class="day-cell" data-date="1999-10-05" x="510" y="59" width="10" height="10" fill="#ebedf0" rx="2" ry="2"></rect>
<rect class="day-cell" data-date="1999-10-06" x="510" y="71" width="10" height="10" fill="#ebedf0" rx="2" ry="2"></rect>
<rect class="day-cell" data-date="1999-10-07" x="510" y="83" width="10" height="10" fill="#ebedf0" rx="2" ry="2"></rect>
<rect class="day-cell" data-date="1999-10-08" x="510" y="95" width="10" height="10" fill="#ebedf0" rx="2" ry="2"></rect>
<rect class="day-cell" data-date="1999-10-09" x="510" y="107" width="10" height="10" fill="#ebedf0" rx="2" ry="2"></rect>
<rect class="day-cell" data-date="1999-10-10" x="522" y="35" width="10" height="10" fill="#ebedf0" rx="2" ry="2"></rect>
<rect class="day-cell" data-date="1999-10-11" x="522" y="47" width="10" height="10" fill="#ebedf0" rx="2" ry="2"></rect>
<rect class="day-cell" data-date="1999-10-12" x="522" y="59" width="10" height="10" fill="#ebedf0" rx="2" ry="2"></rect>
<rect class="day-cell" data-date="1999-10-13" x="522" y="71" width="10" height="10" fill="#ebedf0" rx="2" ry="2"></rect>
<rect class="day-cell" data-date="1999-10-14" x="522" y="83" width="10" height="10" fill="#ebedf0" rx="2" ry="2"></rect>
<rect class="day-cell" data-date="1999-10-15" x="522" y="95" width="10" height="10" fill="#ebedf0" rx="2" ry="2"></rect>
<rect class="day-cell" data-date="1999-10-16" x="522" y="107" width="10" height="10" fill="#ebedf0" rx="2" ry="2"></rect>
<rect class="day-cell" data-date="1999-10-17" x="534" y="35" width="10" height="10" fill="#ebedf0" rx="2" ry="2"></rect>
<rect class="day-cell" data-date="1999-10-18" x="534" y="47" width="10" height="10" fill="#ebedf0" rx="2" ry="2"></rect>
<rect class="day-cell" data-date="1999-10-19" x="534" y="59" width="10" height="10" fill="#ebedf0" rx="2" ry="2"></rect>
<rect class="day-cell" data-date="1999-10-20" x="534" y="71" width="10" height="10" fill="#ebedf0" rx="2" ry="2"></rect>
<rect class="day-cell" data-date="1999-10-21" x="534" y="83" width="10" height="10" fill="#ebedf0" rx="2" ry="2"></rect>
<rect class="day-cell" data-date="1999-10-22" x="534" y="95" width="10" height="10" fill="#ebedf0" rx="2" ry="2"></rect>
<rect class="day-cell" data-date="1999-10-23" x="534" y="107" width="10" height="10" fill="#ebedf0" rx="2" ry="2"></rect>
<rect class="day-cell" data-date="1999-10-24" x="546" y="35" width="10" height="10" fill="#ebedf0" rx="2" ry="2"></rect>
<rect class="day-cell" data-date="1999-10-25" x="546" y="47" width="10" height="10" fill="#ebedf0" rx="2" ry="2"></rect>
<rect class="day-cell" data-date="1999-10-26" x="546" y="59" width="10" height="10" fill="#ebedf0" rx="2" ry="2"></rect>
<rect class="day-cell" data-date="1999-10-27" x="546" y="71" width="10" height="10" fill="#ebedf0" rx="2" ry="2"></rect>
<rect class="day-cell" data-date="1999-10-28" x="546" y="83" width="10" height="10" fill="#ebedf0" rx="2" ry="2"></rect>
<rect class="day-cell" data-date="1999-10-29" x="546" y="95" width="10" height="10" fill="#ebedf0" rx="2" ry="2"></rect>
<rect class="day-cell" data-date="1999-10-30" x="546" y="107" width="10" height="10" fill="#ebedf0" rx="2" ry="2"></rect>
<rect class="day-cell" data-date="1999-10-31" x="558" y="35" width="10" height="10" fill="#ebedf0" rx="2" ry="2"></rect>
<rect class="day-cell" data-date="1999-11-01" x="558" y="47" width="10" height="10" fill="#ebedf0" rx="2" ry="2"></rect>
<rect class="day-cell" data-date="1999-11-02" x="558" y="59" width="10" height="10" fill="#ebedf0" rx="2" ry="2"></rect>
<rect class="day-cell" data-date="1999-11-03" x="558" y="71" width="10" height="10" fill="#ebedf0" rx="2" ry="2"></rect>
<rect class="day-cell" data-date="1999-11-04" x="558" y="83" width="10" height="10" fill="#ebedf0" rx="2" ry="2"></rect>
<rect class="day-cell" data-date="1999-11-05" x="558" y="95" width="10" height="10" fill="#ebedf0" rx="2" ry="2"></rect>
<rect class="day-cell" data-date="1999-11-06" x="558" y="107" width="10" height="10" fill="#ebedf0" rx="2" ry="2"></rect>
<text x="570" y="30" font-family="sans-serif" font-size="8" fill="#767676">Nov</text>
<rect class="day-cell" data-date="1999-11-07" x="570" y="35" width="10" height="10" fill="#ebedf0" rx="2" ry="2"></rect>
<rect class="day-cell" data-date="1999-11-08" x="570" y="47" width="10" height="10" fill="#ebedf0" rx="2" ry="2"></rect>
<rect class="day-cell" data-date="1999-11-09" x="570" y="59" width="10" height="10" fill="#ebedf0" rx="2" ry="2"></rect>
<rect class="day-cell" data-date="1999-11-10" x="570" y="71" width="10" height="10" fill="#ebedf0" rx="2" ry="2"></rect>
<a href="https://saiht.de/legacy/alt.html"><rect class="day-cell" data-date="1999-11-11" x="570" y="83" width="10" height="10" fill="#42a5f5" rx="2" ry="2"></rect></a>
<rect class="day-cell" data-date="1999-11-12" x="570" y="95" width="10" height="10" fill="#ebedf0" rx="2" ry="2"></rect>
<rect class="day-cell" data-date="1999-11-13" x="570" y="107" width="10" height="10" fill="#ebedf0" rx="2" ry="2"></rect>
<rect class="day-cell" data-date="1999-11-14" x="582" y="35" width="10" height="10" fill="#ebedf0" rx="2" ry="2"></rect>
<rect class="day-cell" data-date="1999-11-15" x="582" y="47" width="10" height="10" fill="#ebedf0" rx="2" ry="2"></rect>
<rect class="day-cell" data-date="1999-11-16" x="582" y="59" width="10" height="10" fill="#ebedf0" rx="2" ry="2"></rect>
<rect class="day-cell" data-date="1999-11-17" x="582" y="71" width="10" height="10" fill="#ebedf0" rx="2" ry="2"></rect>
<rect class="day-cell" data-date="1999-11-18" x="582" y="83" width="10" height="10" fill="#ebedf0" rx="2" ry="2"></rect>
<rect class="day-cell" data-date="1999-11-19" x="582" y="95" width="10" height="10" fill="#ebedf0" rx="2" ry="2"></rect>
<rect class="day-cell" data-date="1999-11-20" x="582" y="107" width="10" height="10" fill="#ebedf0" rx="2" ry="2"></rect>
<rect class="day-cell" data-date="1999-11-21" x="594" y="35" width="10" height="10" fill="#ebedf0" rx="2" ry="2"></rect>
<rect class="day-cell" data-date="1999-11-22" x="594" y="47" width="10" height="10" fill="#ebedf0" rx="2" ry="2"></rect>
<rect class="day-cell" data-date="1999-11-23" x="594" y="59" width="10" height="10" fill="#ebedf0" rx="2" ry="2"></rect>
<rect class="day-cell" data-date="1999-11-24" x="594" y="71" width="10" height="10" fill="#ebedf0" rx="2" ry="2"></rect>
<rect class="day-cell" data-date="1999-11-25" x="594" y="83" width="10" height="10" fill="#ebedf0" rx="2" ry="2"></rect>
<rect class="day-cell" data-date="1999-11-26" x="594" y="95" width="10" height="10" fill="#ebedf0" rx="2" ry="2"></rect>
<rect class="day-cell" data-date="1999-11-27" x="594" y="107" width="10" height="10" fill="#ebedf0" rx="2" ry="2"></rect>
<rect class="day-cell" data-date="1999-11-28" x="606" y="35" width="10" height="10" fill="#ebedf0" rx="2" ry="2"></rect>
<rect class="day-cell" data-date="1999-11-29" x="606" y="47" width="10" height="10" fill="#ebedf0" rx="2" ry="2"></rect>
<rect class="day-cell" data-date="1999-11-30" x="606" y="59" width="10" height="10" fill="#ebedf0" rx="2" ry="2"></rect>
<rect class="day-cell" data-date="1999-12-01" x="606" y="71" width="10" height="10" fill="#ebedf0" rx="2" ry="2"></rect>
<rect class="day-cell" data-date="1999-12-02" x="606" y="83" width="10" height="10" fill="#ebedf0" rx="2" ry="2"></rect>
<rect class="day-cell" data-date="1999-12-03" x="606" y="95" width="10" height="10" fill="#ebedf0" rx="2" ry="2"></rect>
<rect class="day-cell" data-date="1999-12-04" x="606" y="107" width="10" height="10" fill="#ebedf0" rx="2" ry="2"></rect>
<text x="618" y="30" font-family="sans-serif" font-size="8" fill="#767676">Dec</text>
<rect class="day-cell" data-date="1999-12-05" x="618" y="35" width="10" height="10" fill="#ebedf0" rx="2" ry="2"></rect>
<rect class="day-cell" data-date="1999-12-06" x="618" y="47" width="10" height="10" fill="#ebedf0" rx="2" ry="2"></rect>
<rect class="day-cell" data-date="1999-12-07" x="618" y="59" width="10" height="10" fill="#ebedf0" rx="2" ry="2"></rect>
<rect class="day-cell" data-date="1999-12-08" x="618" y="71" width="10" height="10" fill="#ebedf0" rx="2" ry="2"></rect>
<rect class="day-cell" data-date="1999-12-09" x="618" y="83" width="10" height="10" fill="#ebedf0" rx="2" ry="2"></rect>
<rect class="day-cell" data-date="1999-12-10" x="618" y="95" width="10" height="10" fill="#ebedf0" rx="2" ry="2"></rect>
<rect class="day-cell" data-date="1999-12-11" x="618" y="107" width="10" height="10" fill="#ebedf0" rx="2" ry="2"></rect>
<rect class="day-cell" data-date="1999-12-12" x="630" y="35" width="10" height="10" fill="#ebedf0" rx="2" ry="2"></rect>
<rect class="day-cell" data-date="1999-12-13" x="630" y="47" width="10" height="10" fill="#ebedf0" rx="2" ry="2"></rect>
<rect class="day-cell" data-date="1999-12-14" x="630" y="59" width="10" height="10" fill="#ebedf0" rx="2" ry="2"></rect>
<rect class="day-cell" data-date="1999-12-15" x="630" y="71" width="10" height="10" fill="#ebedf0" rx="2" ry="2"></rect>
<rect class="day-cell" data-date="1999-12-16" x="630" y="83" width="10" height="10" fill="#ebedf0" rx="2" ry="2"></rect>
<rect class="day-cell" data-date="1999-12-17" x="630" y="95" width="10" height="10" fill="#ebedf0" rx="2" ry="2"></rect>
<rect class="day-cell" data-date="1999-12-18" x="630" y="107" width="10" height="10" fill="#ebedf0" rx="2" ry="2"></rect>
<rect class="day-cell" data-date="1999-12-19" x="642" y="35" width="10" height="10" fill="#ebedf0" rx="2" ry="2"></rect>
<rect class="day-cell" data-date="1999-12-20" x="642" y="47" width="10" height="10" fill="#ebedf0" rx="2" ry="2"></rect>
<rect class="day-cell" data-date="1999-12-21" x="642" y="59" width="10" height="10" fill="#ebedf0" rx="2" ry="2"></rect>
<rect class="day-cell" data-date="1999-12-22" x="642" y="71" width="10" height="10" fill="#ebedf0" rx="2" ry="2"></rect>
<rect class="day-cell" data-date="1999-12-23" x="642" y="83" width="10" height="10" fill="#ebedf0" rx="2" ry="2"></rect>
<rect class="day-cell" data-date="1999-12-24" x="642" y="95" width="10" height="10" fill="#ebedf0" rx="2" ry="2"></rect>
<rect class="day-cell" data-date="1999-12-25" x="642" y="107" width="10" height="10" fill="#ebedf0" rx="2" ry="2"></rect>
<rect class="day-cell" data-date="1999-12-26" x="654" y="35" width="10" height="10" fill="#ebedf0" rx="2" ry="2"></rect>
<rect class="day-cell" data-date="1999-12-27" x="654" y="47" width="10" height="10" fill="#ebedf0" rx="2" ry="2"></rect>
<rect class="day-cell" data-date="1999-12-28" x="654" y="59" width="10" height="10" fill="#ebedf0" rx="2" ry="2"></rect>
<rect class="day-cell" data-date="1999-12-29" x="654" y="71" width="10" height="10" fill="#ebedf0" rx="2" ry="2"></rect>
<rect class="day-cell" data-date="1999-12-30" x="654" y="83" width="10" height="10" fill="#ebedf0" rx="2" ry="2"></rect>
<rect class="day-cell" data-date="1999-12-31" x="654" y="95" width="10" height="10" fill="#ebedf0" rx="2" ry="2"></rect>
</svg>